<svg version="1.1" id="Layer_1" xmlns="http://www.w3.org/2000/svg" xmlns:xlink="http://www.w3.org/1999/xlink" x="0px" y="0px"
	 width="100%" viewBox="0 0 500 500" enable-background="new 0 0 500 500" xml:space="preserve">
<path fill="#000000" opacity="1.000000" stroke="none" 
	d="
M240.000000,501.000000 
	C160.000015,501.000000 80.500038,501.000000 1.000028,501.000000 
	C1.000000,417.666718 1.000000,334.333405 1.000000,251.000122 
	C1.000000,167.666809 1.000000,84.333488 1.000000,1.000132 
	C167.666565,1.000088 334.333130,1.000088 500.999756,1.000044 
	C500.999847,167.666519 500.999847,334.333038 500.999939,500.999786 
	C414.166656,501.000000 327.333344,501.000000 240.000000,501.000000 
M213.262894,160.363220 
	C214.178101,159.337967 215.093307,158.312729 216.008530,157.287491 
	C215.222610,156.620407 214.192795,155.257080 213.700943,155.429367 
	C212.635834,155.802505 211.846115,156.961807 210.208328,157.727737 
	C208.150070,157.211685 206.091797,156.695618 203.212830,156.060532 
	C201.833145,156.050690 200.453476,156.040833 198.634125,155.967346 
	C198.634125,155.967346 198.190323,155.986801 197.605896,155.449173 
	C196.499023,155.449173 195.392151,155.449173 194.181122,155.449173 
	C194.181122,159.801270 194.181122,163.873947 194.181122,168.576050 
	C195.842072,167.923431 197.068802,167.441422 198.435242,167.061096 
	C198.435242,167.061096 198.604843,167.028137 199.087662,167.729141 
	C200.752838,167.661301 202.417999,167.593445 204.743393,167.796600 
	C206.781174,167.557907 208.818970,167.319229 211.225235,167.768692 
	C212.619461,167.273636 214.013687,166.778564 215.407898,166.283493 
	C214.619812,164.493149 213.831741,162.702820 213.262894,160.363220 
M237.668030,166.895325 
	C240.709991,163.888428 244.279053,160.906662 239.076355,156.815247 
	C237.728729,155.755463 236.086349,155.070526 234.579346,154.213409 
	C233.778107,155.677353 232.709259,157.063293 232.253250,158.627869 
	C231.824142,160.100128 232.198364,161.786682 231.942978,163.333374 
	C231.336716,167.004974 232.815842,168.105270 237.000397,167.000107 
	C237.000397,167.000107 236.973419,167.028275 237.668030,166.895325 
M272.892883,262.648254 
	C273.266144,262.719696 273.639404,262.791107 274.933807,262.983337 
	C279.048889,262.983337 283.163971,262.983337 287.770691,262.983337 
	C287.770691,252.024597 287.770691,241.611389 287.770691,231.363312 
	C294.030884,229.465622 297.211121,231.474854 299.373291,237.246796 
	C302.278870,245.003296 306.165710,252.400040 309.807190,259.865479 
	C310.423370,261.128723 311.863373,262.762238 313.026733,262.850220 
	C317.595795,263.195801 322.206421,262.991669 327.671631,262.991669 
	C322.182220,250.983948 317.046570,239.750122 311.861938,228.409088 
	C313.045410,227.835968 313.955627,227.435883 314.828400,226.966202 
	C323.651215,222.218216 327.296417,214.457260 326.133423,202.928665 
	C325.197906,193.654922 319.776550,186.007568 310.369598,184.668442 
	C298.014160,182.909622 285.386749,183.061310 272.782196,182.386353 
	C272.782196,188.257935 272.782196,192.810303 272.782196,197.617188 
	C276.832031,197.617188 280.484924,197.589264 284.137177,197.623489 
	C290.132599,197.679657 296.146393,197.510620 302.117493,197.931931 
	C307.843292,198.335907 311.003082,201.774582 311.054474,206.737976 
	C311.107147,211.825714 308.161682,215.021866 302.353760,215.771027 
	C299.726288,216.109955 297.032501,215.975693 294.368591,215.984207 
	C287.121979,216.007370 279.875244,215.992142 272.851654,215.992142 
	C272.851654,231.809738 272.851654,246.924072 272.892883,262.648254 
M215.510162,278.833588 
	C212.898895,278.833588 210.287643,278.833588 207.407227,278.833588 
	C207.407227,303.188751 207.407227,326.925110 207.407227,350.828918 
	C213.441849,350.828918 219.317551,350.828918 225.741821,350.828918 
	C225.741821,338.019226 225.741821,325.508209 225.741821,311.618042 
	C227.516876,314.085052 228.460190,315.363037 229.369446,316.664795 
	C241.951187,334.677399 254.504471,352.710022 267.154114,370.674805 
	C268.106842,372.027832 269.677399,373.750977 271.064362,373.849915 
	C276.316162,374.224487 281.610626,374.000610 287.015625,374.000610 
	C287.015625,342.041138 287.015625,310.629303 287.015625,279.241364 
	C280.964691,279.241364 275.236176,279.241364 268.884460,279.241364 
	C268.884460,299.790741 268.884460,319.940735 268.884460,341.272919 
	C255.418289,322.044250 242.482468,304.082184 230.183441,285.694244 
	C226.587265,280.317688 222.783035,277.664703 215.510162,278.833588 
M62.531727,300.106934 
	C57.980995,307.990509 56.560650,316.675568 56.512589,325.565765 
	C56.423332,342.075714 60.851799,356.689087 75.984406,365.727753 
	C92.437042,375.554871 110.674004,374.152466 128.890991,373.825592 
	C128.890991,367.812958 128.890991,362.364075 128.890991,356.412354 
	C127.090935,356.412354 125.466225,356.429779 123.841995,356.409332 
	C116.350929,356.315063 108.834633,356.561127 101.375298,356.022095 
	C91.626289,355.317627 82.877052,351.845612 78.466759,342.457947 
	C73.063477,330.956665 72.866516,319.007965 79.972710,308.140350 
	C87.106232,297.230896 98.625824,296.140137 110.887680,296.243134 
	C110.887680,303.374603 110.887680,310.123260 110.887680,317.043030 
	C117.095741,317.043030 122.843254,317.043030 128.754730,317.043030 
	C128.754730,304.348694 128.754730,291.805420 128.754730,278.373627 
	C117.647369,278.909119 106.824615,278.883026 96.139565,280.083038 
	C82.415565,281.624298 70.493492,287.022675 62.531727,300.106934 
M203.958740,301.500031 
	C203.958740,294.070679 203.958740,286.641327 203.958740,279.263031 
	C197.533951,279.263031 191.823639,279.263031 185.924911,279.263031 
	C185.924911,299.678192 185.950394,319.661224 185.914734,339.644135 
	C185.895386,350.482086 179.954102,356.172729 168.630493,356.341400 
	C157.618210,356.505371 150.711609,350.134338 150.583847,339.578430 
	C150.503189,332.915161 150.568542,326.250153 150.568497,319.585907 
	C150.568436,311.801849 150.568497,304.017822 150.568497,296.324097 
	C144.221420,296.324097 138.471802,296.324097 132.626755,296.324097 
	C132.626755,312.758331 132.243622,328.900146 132.752167,345.013824 
	C133.135147,357.148682 140.186722,365.339905 150.885712,370.442352 
	C158.145859,373.904816 165.931519,374.668823 173.819199,373.760620 
	C193.196503,371.529480 203.925400,359.422729 203.954773,339.986328 
	C203.973663,327.490936 203.958588,314.995453 203.958740,301.500031 
M309.861053,356.707825 
	C321.592194,356.707825 333.323303,356.707825 345.538391,356.707825 
	C345.538391,362.302094 345.538391,367.910004 345.538391,373.742096 
	C351.756805,373.742096 357.490509,373.742096 363.536438,373.742096 
	C363.536438,342.097870 363.536438,310.725433 363.536438,279.093933 
	C357.471283,279.093933 351.727722,279.093933 345.358643,279.093933 
	C345.358643,298.898621 345.358643,318.446564 345.358643,338.362183 
	C326.993988,338.362183 309.251984,338.362183 291.432465,338.362183 
	C291.432465,350.316162 291.432465,361.886658 291.432465,373.733887 
	C297.476898,373.733887 303.210114,373.733887 309.587921,373.733887 
	C309.587921,368.235870 309.587921,362.940430 309.861053,356.707825 
M394.565277,349.170837 
	C397.796783,339.936493 401.028290,330.702148 404.530853,320.693268 
	C405.294861,322.646606 405.743317,323.706085 406.127502,324.788391 
	C411.458588,339.806458 416.728790,354.846558 422.181549,369.820251 
	C422.760803,371.410828 424.306641,373.708099 425.558289,373.811554 
	C430.927704,374.255280 436.354858,374.000824 442.587555,374.000824 
	C429.982422,341.617065 417.715546,310.102295 405.448669,278.587524 
	C404.866608,278.622833 404.284546,278.658142 403.702454,278.693420 
	C391.474823,310.251801 379.247192,341.810181 366.843994,373.821686 
	C373.668976,373.821686 379.630341,373.821686 385.909729,373.821686 
	C388.676880,365.858887 391.452393,357.872101 394.565277,349.170837 
M225.143616,238.632965 
	C225.143616,225.042038 225.143616,211.451111 225.143616,197.774780 
	C219.326187,197.774780 214.461151,197.774780 209.469376,197.774780 
	C209.469376,211.330582 209.254395,224.480042 209.607574,237.614212 
	C209.706451,241.291550 210.861023,245.251938 212.594620,248.518143 
	C218.962250,260.515259 234.154129,265.755096 249.615173,261.747955 
	C262.480957,258.413452 269.555237,248.807007 269.620636,234.337097 
	C269.690643,218.850586 269.648224,203.363480 269.622070,187.876694 
	C269.619415,186.305817 269.391388,184.735336 269.272186,183.218964 
	C264.082550,183.218964 259.474030,183.218964 254.246719,183.218964 
	C254.246719,185.227509 254.246750,187.014175 254.246704,188.800842 
	C254.246246,204.121155 254.208130,219.441635 254.269852,234.761703 
	C254.286896,238.990921 253.307632,242.614685 249.683868,245.228058 
	C241.531174,251.107574 230.078568,248.385300 225.143616,238.632965 
M162.198502,212.307419 
	C163.559433,214.196594 164.738724,216.255539 166.315750,217.942719 
	C170.812485,222.753601 172.090408,228.309952 171.765915,234.820892 
	C171.304092,244.087936 171.648529,253.395157 171.648529,262.736694 
	C176.950516,262.736694 181.710892,262.736694 186.984207,262.736694 
	C186.984207,258.039459 187.508957,253.514633 186.891129,249.151627 
	C184.527603,232.461029 189.141861,218.209808 200.739243,206.038620 
	C202.778427,203.898560 204.185806,201.156464 205.923599,198.636368 
	C194.499939,197.110703 183.990143,196.355469 179.711838,210.516525 
	C173.422211,201.691483 167.956390,193.980530 162.430389,186.312912 
	C161.581818,185.135468 160.503098,183.289246 159.450821,183.232376 
	C153.786407,182.926224 148.096756,183.087570 141.389679,183.087570 
	C148.710983,193.336288 155.268875,202.516357 162.198502,212.307419 
M354.748169,185.802475 
	C353.978912,184.864044 353.258331,183.167435 352.432251,183.114410 
	C348.163239,182.840454 343.867188,182.987167 339.048248,182.987167 
	C339.048248,205.290802 339.048248,227.155350 339.048248,249.473907 
	C335.748199,249.473907 333.001617,249.473907 330.319031,249.473907 
	C330.319031,254.187393 330.319031,258.430023 330.319031,262.697632 
	C341.550720,262.697632 352.446045,262.697632 363.519775,262.697632 
	C363.519775,258.156555 363.519775,253.932037 363.519775,249.399719 
	C360.489044,249.238693 357.758881,249.093628 354.748810,248.933701 
	C354.748810,227.986786 354.748810,207.370911 354.748169,185.802475 
M309.556274,311.419495 
	C309.556274,300.691925 309.556274,289.964386 309.556274,279.082458 
	C303.123840,279.082458 297.383392,279.082458 291.431152,279.082458 
	C291.431152,292.852142 291.431152,306.356293 291.431152,319.919617 
	C297.519440,319.919617 303.290131,319.919617 309.556213,319.919617 
	C309.556213,317.295166 309.556213,314.842407 309.556274,311.419495 
M187.180923,165.175262 
	C187.441605,166.138412 187.702271,167.101547 187.962936,168.064697 
	C188.227997,168.033356 188.493073,168.002014 188.758133,167.970657 
	C189.069107,166.139877 189.380081,164.309082 189.691055,162.478287 
	C189.985779,162.526138 190.280502,162.574005 190.575226,162.621857 
	C190.823624,164.413803 191.072037,166.205765 191.320450,167.997711 
	C191.600601,167.959137 191.880737,167.920563 192.160889,167.881989 
	C192.160889,163.770004 192.160889,159.658020 192.160889,155.546036 
	C191.858536,155.545425 191.556198,155.544830 191.253845,155.544235 
	C190.986816,157.326752 190.719788,159.109268 190.452759,160.891785 
	C190.158112,160.876129 189.863480,160.860474 189.568848,160.844833 
	C189.295441,159.042023 189.022034,157.239197 188.748627,155.436386 
	C188.227097,155.433365 187.705566,155.430359 187.184036,155.427338 
	C187.184036,158.375565 187.184036,161.323807 187.180923,165.175262 
M183.310730,166.134445 
	C183.431824,162.629303 183.552917,159.124161 183.694824,155.016449 
	C182.960403,155.757629 181.091141,156.792496 181.120392,157.770615 
	C181.217026,161.001907 181.999420,164.212708 182.518570,167.431366 
	C182.723541,167.179382 182.928513,166.927399 183.310730,166.134445 
z"/>
<path fill="#FBFBFB" opacity="1.000000" stroke="none" 
	d="
M215.990753,278.833588 
	C222.783035,277.664703 226.587265,280.317688 230.183441,285.694244 
	C242.482468,304.082184 255.418289,322.044250 268.884460,341.272919 
	C268.884460,319.940735 268.884460,299.790741 268.884460,279.241364 
	C275.236176,279.241364 280.964691,279.241364 287.015625,279.241364 
	C287.015625,310.629303 287.015625,342.041138 287.015625,374.000610 
	C281.610626,374.000610 276.316162,374.224487 271.064362,373.849915 
	C269.677399,373.750977 268.106842,372.027832 267.154114,370.674805 
	C254.504471,352.710022 241.951187,334.677399 229.369446,316.664795 
	C228.460190,315.363037 227.516876,314.085052 225.741821,311.618042 
	C225.741821,325.508209 225.741821,338.019226 225.741821,350.828918 
	C219.317551,350.828918 213.441849,350.828918 207.407227,350.828918 
	C207.407227,326.925110 207.407227,303.188751 207.407227,278.833588 
	C210.287643,278.833588 212.898895,278.833588 215.990753,278.833588 
z"/>
<path fill="#FCFCFC" opacity="1.000000" stroke="none" 
	d="
M62.733650,299.798096 
	C70.493492,287.022675 82.415565,281.624298 96.139565,280.083038 
	C106.824615,278.883026 117.647369,278.909119 128.754730,278.373627 
	C128.754730,291.805420 128.754730,304.348694 128.754730,317.043030 
	C122.843254,317.043030 117.095741,317.043030 110.887680,317.043030 
	C110.887680,310.123260 110.887680,303.374603 110.887680,296.243134 
	C98.625824,296.140137 87.106232,297.230896 79.972710,308.140350 
	C72.866516,319.007965 73.063477,330.956665 78.466759,342.457947 
	C82.877052,351.845612 91.626289,355.317627 101.375298,356.022095 
	C108.834633,356.561127 116.350929,356.315063 123.841995,356.409332 
	C125.466225,356.429779 127.090935,356.412354 128.890991,356.412354 
	C128.890991,362.364075 128.890991,367.812958 128.890991,373.825592 
	C110.674004,374.152466 92.437042,375.554871 75.984406,365.727753 
	C60.851799,356.689087 56.423332,342.075714 56.512589,325.565765 
	C56.560650,316.675568 57.980995,307.990509 62.733650,299.798096 
z"/>
<path fill="#FAFAFA" opacity="1.000000" stroke="none" 
	d="
M203.958740,302.000031 
	C203.958588,314.995453 203.973663,327.490936 203.954773,339.986328 
	C203.925400,359.422729 193.196503,371.529480 173.819199,373.760620 
	C165.931519,374.668823 158.145859,373.904816 150.885712,370.442352 
	C140.186722,365.339905 133.135147,357.148682 132.752167,345.013824 
	C132.243622,328.900146 132.626755,312.758331 132.626755,296.324097 
	C138.471802,296.324097 144.221420,296.324097 150.568497,296.324097 
	C150.568497,304.017822 150.568436,311.801849 150.568497,319.585907 
	C150.568542,326.250153 150.503189,332.915161 150.583847,339.578430 
	C150.711609,350.134338 157.618210,356.505371 168.630493,356.341400 
	C179.954102,356.172729 185.895386,350.482086 185.914734,339.644135 
	C185.950394,319.661224 185.924911,299.678192 185.924911,279.263031 
	C191.823639,279.263031 197.533951,279.263031 203.958740,279.263031 
	C203.958740,286.641327 203.958740,294.070679 203.958740,302.000031 
z"/>
<path fill="#F8F8F8" opacity="1.000000" stroke="none" 
	d="
M309.724487,357.176392 
	C309.587921,362.940430 309.587921,368.235870 309.587921,373.733887 
	C303.210114,373.733887 297.476898,373.733887 291.432465,373.733887 
	C291.432465,361.886658 291.432465,350.316162 291.432465,338.362183 
	C309.251984,338.362183 326.993988,338.362183 345.358643,338.362183 
	C345.358643,318.446564 345.358643,298.898621 345.358643,279.093933 
	C351.727722,279.093933 357.471283,279.093933 363.536438,279.093933 
	C363.536438,310.725433 363.536438,342.097870 363.536438,373.742096 
	C357.490509,373.742096 351.756805,373.742096 345.538391,373.742096 
	C345.538391,367.910004 345.538391,362.302094 345.538391,356.707825 
	C333.323303,356.707825 321.592194,356.707825 309.724487,357.176392 
z"/>
<path fill="#FBFBFB" opacity="1.000000" stroke="none" 
	d="
M272.851654,262.038422 
	C272.851654,246.924072 272.851654,231.809738 272.851654,215.992142 
	C279.875244,215.992142 287.121979,216.007370 294.368591,215.984207 
	C297.032501,215.975693 299.726288,216.109955 302.353760,215.771027 
	C308.161682,215.021866 311.107147,211.825714 311.054474,206.737976 
	C311.003082,201.774582 307.843292,198.335907 302.117493,197.931931 
	C296.146393,197.510620 290.132599,197.679657 284.137177,197.623489 
	C280.484924,197.589264 276.832031,197.617188 272.782196,197.617188 
	C272.782196,192.810303 272.782196,188.257935 272.782196,182.386353 
	C285.386749,183.061310 298.014160,182.909622 310.369598,184.668442 
	C319.776550,186.007568 325.197906,193.654922 326.133423,202.928665 
	C327.296417,214.457260 323.651215,222.218216 314.828400,226.966202 
	C313.955627,227.435883 313.045410,227.835968 311.861938,228.409088 
	C317.046570,239.750122 322.182220,250.983948 327.671631,262.991669 
	C322.206421,262.991669 317.595795,263.195801 313.026733,262.850220 
	C311.863373,262.762238 310.423370,261.128723 309.807190,259.865479 
	C306.165710,252.400040 302.278870,245.003296 299.373291,237.246796 
	C297.211121,231.474854 294.030884,229.465622 287.770691,231.363312 
	C287.770691,241.611389 287.770691,252.024597 287.770691,262.983337 
	C283.163971,262.983337 279.048889,262.983337 274.319611,262.730194 
	C273.487976,262.200134 273.203369,262.053925 272.851654,262.038422 
z"/>
<path fill="#FBFBFB" opacity="1.000000" stroke="none" 
	d="
M394.396576,349.528076 
	C391.452393,357.872101 388.676880,365.858887 385.909729,373.821686 
	C379.630341,373.821686 373.668976,373.821686 366.843994,373.821686 
	C379.247192,341.810181 391.474823,310.251801 403.702454,278.693420 
	C404.284546,278.658142 404.866608,278.622833 405.448669,278.587524 
	C417.715546,310.102295 429.982422,341.617065 442.587555,374.000824 
	C436.354858,374.000824 430.927704,374.255280 425.558289,373.811554 
	C424.306641,373.708099 422.760803,371.410828 422.181549,369.820251 
	C416.728790,354.846558 411.458588,339.806458 406.127502,324.788391 
	C405.743317,323.706085 405.294861,322.646606 404.530853,320.693268 
	C401.028290,330.702148 397.796783,339.936493 394.396576,349.528076 
z"/>
<path fill="#F5F5F5" opacity="1.000000" stroke="none" 
	d="
M225.298523,239.023987 
	C230.078568,248.385300 241.531174,251.107574 249.683868,245.228058 
	C253.307632,242.614685 254.286896,238.990921 254.269852,234.761703 
	C254.208130,219.441635 254.246246,204.121155 254.246704,188.800842 
	C254.246750,187.014175 254.246719,185.227509 254.246719,183.218964 
	C259.474030,183.218964 264.082550,183.218964 269.272186,183.218964 
	C269.391388,184.735336 269.619415,186.305817 269.622070,187.876694 
	C269.648224,203.363480 269.690643,218.850586 269.620636,234.337097 
	C269.555237,248.807007 262.480957,258.413452 249.615173,261.747955 
	C234.154129,265.755096 218.962250,260.515259 212.594620,248.518143 
	C210.861023,245.251938 209.706451,241.291550 209.607574,237.614212 
	C209.254395,224.480042 209.469376,211.330582 209.469376,197.774780 
	C214.461151,197.774780 219.326187,197.774780 225.143616,197.774780 
	C225.143616,211.451111 225.143616,225.042038 225.298523,239.023987 
z"/>
<path fill="#FBFBFB" opacity="1.000000" stroke="none" 
	d="
M162.012634,212.001923 
	C155.268875,202.516357 148.710983,193.336288 141.389679,183.087570 
	C148.096756,183.087570 153.786407,182.926224 159.450821,183.232376 
	C160.503098,183.289246 161.581818,185.135468 162.430389,186.312912 
	C167.956390,193.980530 173.422211,201.691483 179.711838,210.516525 
	C183.990143,196.355469 194.499939,197.110703 205.923599,198.636368 
	C204.185806,201.156464 202.778427,203.898560 200.739243,206.038620 
	C189.141861,218.209808 184.527603,232.461029 186.891129,249.151627 
	C187.508957,253.514633 186.984207,258.039459 186.984207,262.736694 
	C181.710892,262.736694 176.950516,262.736694 171.648529,262.736694 
	C171.648529,253.395157 171.304092,244.087936 171.765915,234.820892 
	C172.090408,228.309952 170.812485,222.753601 166.315750,217.942719 
	C164.738724,216.255539 163.559433,214.196594 162.012634,212.001923 
z"/>
<path fill="#F6F6F6" opacity="1.000000" stroke="none" 
	d="
M354.748474,186.278748 
	C354.748810,207.370911 354.748810,227.986786 354.748810,248.933701 
	C357.758881,249.093628 360.489044,249.238693 363.519775,249.399719 
	C363.519775,253.932037 363.519775,258.156555 363.519775,262.697632 
	C352.446045,262.697632 341.550720,262.697632 330.319031,262.697632 
	C330.319031,258.430023 330.319031,254.187393 330.319031,249.473907 
	C333.001617,249.473907 335.748199,249.473907 339.048248,249.473907 
	C339.048248,227.155350 339.048248,205.290802 339.048248,182.987167 
	C343.867188,182.987167 348.163239,182.840454 352.432251,183.114410 
	C353.258331,183.167435 353.978912,184.864044 354.748474,186.278748 
z"/>
<path fill="#F6F6F6" opacity="1.000000" stroke="none" 
	d="
M309.556244,311.904572 
	C309.556213,314.842407 309.556213,317.295166 309.556213,319.919617 
	C303.290131,319.919617 297.519440,319.919617 291.431152,319.919617 
	C291.431152,306.356293 291.431152,292.852142 291.431152,279.082458 
	C297.383392,279.082458 303.123840,279.082458 309.556274,279.082458 
	C309.556274,289.964386 309.556274,300.691925 309.556244,311.904572 
z"/>
<path fill="#41450B" opacity="1.000000" stroke="none" 
	d="
M237.028854,166.973358 
	C232.815842,168.105270 231.336716,167.004974 231.942978,163.333374 
	C232.198364,161.786682 231.824142,160.100128 232.253250,158.627869 
	C232.709259,157.063293 233.778107,155.677353 234.579346,154.213409 
	C236.086349,155.070526 237.728729,155.755463 239.076355,156.815247 
	C244.279053,160.906662 240.709991,163.888428 237.312057,166.663788 
	C236.535522,166.127029 236.114960,165.821808 235.694397,165.516602 
	C235.599350,165.786194 235.392303,166.275238 235.426056,166.292465 
	C235.941803,166.555710 236.488998,166.757355 237.028854,166.973358 
M238.067322,162.206314 
	C237.950653,162.291473 237.834000,162.376633 237.717316,162.461777 
	C237.833694,162.549683 237.962296,162.724564 238.064285,162.710205 
	C238.472244,162.652832 238.871902,162.536667 239.274643,162.442261 
	C239.018295,162.338516 238.761963,162.234787 238.067322,162.206314 
z"/>
<path fill="#FAFAFA" opacity="1.000000" stroke="none" 
	d="
M204.033539,156.179565 
	C206.091797,156.695618 208.150070,157.211685 210.909760,157.906769 
	C211.757156,159.028259 211.903122,159.970734 212.019073,161.220337 
	C211.983551,161.733093 211.978058,161.938751 211.592163,162.148590 
	C211.092438,162.810699 210.719910,163.555664 210.909607,164.107315 
	C211.243332,165.077805 211.920731,165.930130 212.055283,166.896820 
	C211.389816,167.001297 211.123276,167.040909 210.856750,167.080536 
	C208.818970,167.319229 206.781174,167.557907 204.465759,167.564911 
	C204.188141,167.333206 204.061478,167.154358 204.017868,166.692444 
	C203.967087,163.183945 203.959915,160.137390 203.994141,156.864899 
	C204.035568,156.638962 204.033539,156.179565 204.033539,156.179565 
M207.252106,164.785080 
	C207.381134,164.964203 207.510178,165.143326 207.639206,165.322449 
	C207.612656,165.069260 207.586105,164.816055 207.252106,164.785080 
z"/>
<path fill="#C9C9C9" opacity="1.000000" stroke="none" 
	d="
M187.182480,164.723648 
	C187.184036,161.323807 187.184036,158.375565 187.184036,155.427338 
	C187.705566,155.430359 188.227097,155.433365 188.748627,155.436386 
	C189.022034,157.239197 189.295441,159.042023 189.568848,160.844833 
	C189.863480,160.860474 190.158112,160.876129 190.452759,160.891785 
	C190.719788,159.109268 190.986816,157.326752 191.253845,155.544235 
	C191.556198,155.544830 191.858536,155.545425 192.160889,155.546036 
	C192.160889,159.658020 192.160889,163.770004 192.160889,167.881989 
	C191.880737,167.920563 191.600601,167.959137 191.320450,167.997711 
	C191.072037,166.205765 190.823624,164.413803 190.575226,162.621857 
	C190.280502,162.574005 189.985779,162.526138 189.691055,162.478287 
	C189.380081,164.309082 189.069107,166.139877 188.758133,167.970657 
	C188.493073,168.002014 188.227997,168.033356 187.962936,168.064697 
	C187.702271,167.101547 187.441605,166.138412 187.182480,164.723648 
z"/>
<path fill="#D4D4D4" opacity="1.000000" stroke="none" 
	d="
M203.623184,156.120056 
	C204.033539,156.179565 204.035568,156.638962 203.588379,156.787476 
	C197.435638,158.102921 205.137848,163.036911 200.977264,164.637909 
	C201.520767,165.392944 201.991455,166.220963 202.641388,166.869324 
	C202.926147,167.153412 203.576904,167.070587 204.061478,167.154358 
	C204.061478,167.154358 204.188141,167.333206 204.135651,167.429413 
	C202.417999,167.593445 200.752838,167.661301 199.039078,166.955414 
	C199.018250,162.798126 199.046021,159.414566 199.073792,156.030991 
	C200.453476,156.040833 201.833145,156.050690 203.623184,156.120056 
z"/>
<path fill="#D4D4D4" opacity="1.000000" stroke="none" 
	d="
M198.295547,166.959427 
	C197.068802,167.441422 195.842072,167.923431 194.181122,168.576050 
	C194.181122,163.873947 194.181122,159.801270 194.181122,155.449173 
	C195.392151,155.449173 196.499023,155.449173 197.688293,156.055771 
	C192.483414,158.235352 199.554382,162.819183 195.796692,164.764816 
	C196.310852,165.432022 196.788254,166.133591 197.360779,166.746262 
	C197.541473,166.939636 197.976761,166.895081 198.295547,166.959427 
z"/>
<path fill="#BEBEBE" opacity="1.000000" stroke="none" 
	d="
M183.222107,166.404938 
	C182.928513,166.927399 182.723541,167.179382 182.518570,167.431366 
	C181.999420,164.212708 181.217026,161.001907 181.120392,157.770615 
	C181.091141,156.792496 182.960403,155.757629 183.694824,155.016449 
	C183.552917,159.124161 183.431824,162.629303 183.222107,166.404938 
z"/>
<path fill="#0F0F0F" opacity="1.000000" stroke="none" 
	d="
M198.365387,167.010254 
	C197.976761,166.895081 197.541473,166.939636 197.360779,166.746262 
	C196.788254,166.133591 196.310852,165.432022 195.796692,164.764816 
	C199.554382,162.819183 192.483414,158.235352 197.980499,156.324585 
	C198.190323,155.986801 198.634125,155.967346 198.853943,155.999176 
	C199.046021,159.414566 199.018250,162.798126 198.797668,166.604919 
	C198.604843,167.028137 198.435242,167.061096 198.365387,167.010254 
z"/>
<path fill="#D4D4D4" opacity="1.000000" stroke="none" 
	d="
M211.972580,162.144394 
	C211.978058,161.938751 211.983551,161.733093 212.267761,161.277512 
	C212.712219,160.989197 212.877945,160.950836 213.043655,160.912476 
	C213.831741,162.702820 214.619812,164.493149 215.407898,166.283493 
	C214.013687,166.778564 212.619461,167.273636 211.040985,167.424622 
	C211.123276,167.040909 211.389816,167.001297 212.291107,166.740082 
	C212.608109,165.060455 212.290344,163.602432 211.972580,162.144394 
z"/>
<path fill="#3A3A3A" opacity="1.000000" stroke="none" 
	d="
M213.153275,160.637848 
	C212.877945,160.950836 212.712219,160.989197 212.297791,160.970398 
	C211.903122,159.970734 211.757156,159.028259 211.277481,157.942688 
	C211.846115,156.961807 212.635834,155.802505 213.700943,155.429367 
	C214.192795,155.257080 215.222610,156.620407 216.008530,157.287491 
	C215.093307,158.312729 214.178101,159.337967 213.153275,160.637848 
z"/>
<path fill="#D4D4D4" opacity="1.000000" stroke="none" 
	d="
M272.872253,262.343323 
	C273.203369,262.053925 273.487976,262.200134 273.859039,262.669800 
	C273.639404,262.791107 273.266144,262.719696 272.872253,262.343323 
z"/>
<path fill="#000000" opacity="1.000000" stroke="none" 
	d="
M237.014618,166.986725 
	C236.488998,166.757355 235.941803,166.555710 235.426056,166.292465 
	C235.392303,166.275238 235.599350,165.786194 235.694397,165.516602 
	C236.114960,165.821808 236.535522,166.127029 236.964752,166.730255 
	C236.973419,167.028275 237.000397,167.000107 237.014618,166.986725 
z"/>
<path fill="#000000" opacity="1.000000" stroke="none" 
	d="
M238.286469,162.168671 
	C238.761963,162.234787 239.018295,162.338516 239.274643,162.442261 
	C238.871902,162.536667 238.472244,162.652832 238.064285,162.710205 
	C237.962296,162.724564 237.833694,162.549683 237.717316,162.461792 
	C237.834000,162.376633 237.950653,162.291473 238.286469,162.168671 
z"/>
<path fill="#0F0F0F" opacity="1.000000" stroke="none" 
	d="
M204.017868,166.692444 
	C203.576904,167.070587 202.926147,167.153412 202.641388,166.869324 
	C201.991455,166.220963 201.520767,165.392944 200.977264,164.637909 
	C205.137848,163.036911 197.435638,158.102921 203.546967,157.013412 
	C203.959915,160.137390 203.967087,163.183945 204.017868,166.692444 
z"/>
<path fill="#0F0F0F" opacity="1.000000" stroke="none" 
	d="
M211.592163,162.148590 
	C212.290344,163.602432 212.608109,165.060455 212.690048,166.675217 
	C211.920731,165.930130 211.243332,165.077805 210.909607,164.107315 
	C210.719910,163.555664 211.092438,162.810699 211.592163,162.148590 
z"/>
<path fill="#D4D4D4" opacity="1.000000" stroke="none" 
	d="
M207.405823,164.673981 
	C207.586105,164.816055 207.612656,165.069260 207.639206,165.322449 
	C207.510178,165.143326 207.381134,164.964203 207.405823,164.673981 
z"/>
</svg>