<?xml version="1.0" standalone="no"?>
<!DOCTYPE svg PUBLIC "-//W3C//DTD SVG 20010904//EN"
 "http://www.w3.org/TR/2001/REC-SVG-20010904/DTD/svg10.dtd">
<svg version="1.0" xmlns="http://www.w3.org/2000/svg"
 width="960.000000pt" height="960.000000pt" viewBox="0 0 960.000000 960.000000"
 preserveAspectRatio="xMidYMid meet">
<metadata>
Created by potrace 1.14, written by Peter Selinger 2001-2017
</metadata>
<g transform="translate(0.000000,960.000000) scale(0.100000,-0.100000)"
fill="#000000" stroke="none">
<path d="M70 9578 c0 -19 2 -20 10 -8 7 10 9 -5 8 -50 -1 -36 4 -92 10 -125 7
-33 12 -95 12 -138 0 -43 4 -86 9 -96 6 -10 12 -98 16 -197 3 -98 8 -215 10
-259 15 -264 17 -345 30 -1125 4 -217 23 -983 30 -1205 1 -38 5 -185 8 -325 3
-140 8 -372 12 -515 3 -143 8 -415 10 -605 4 -349 19 -1131 31 -1580 9 -315
13 -591 11 -655 -1 -27 -1 -117 0 -200 3 -353 8 -490 15 -496 5 -3 5 -17 0
-30 -5 -13 -8 -109 -7 -214 1 -104 -2 -216 -6 -248 -8 -57 -90 -303 -115 -342
-7 -11 -47 -106 -88 -211 l-76 -192 0 -381 0 -381 4800 0 4800 0 0 1528 0
1527 -67 32 c-38 17 -108 58 -158 89 -49 32 -182 105 -295 162 -252 128 -276
145 -284 194 -7 45 -22 49 -37 11 -10 -27 -11 -27 -25 -9 -12 17 -14 17 -14 3
0 -14 -5 -14 -31 -5 -17 6 -33 17 -36 24 -3 8 -11 14 -19 14 -8 0 -14 5 -14
10 0 6 -9 10 -21 10 -11 0 -18 3 -16 8 8 13 -12 52 -27 52 -7 0 -16 7 -20 15
-3 9 0 15 9 15 15 0 16 6 22 155 1 39 5 95 8 125 11 107 9 274 -3 278 -14 4
-17 82 -3 82 13 0 -7 602 -25 748 -5 36 -3 52 5 52 8 0 11 48 11 160 0 100 -4
160 -10 160 -6 0 -10 33 -10 80 0 47 4 80 10 80 6 0 10 33 10 80 0 47 -4 80
-10 80 -6 0 -10 33 -10 80 0 47 4 80 10 80 6 0 10 18 10 40 0 29 -4 40 -15 40
-11 0 -15 11 -15 40 0 28 4 40 15 40 12 0 13 39 8 278 -3 152 -10 279 -14 280
-12 5 -12 162 0 162 15 0 21 123 10 210 -20 160 -21 195 -9 310 10 85 10 115
1 118 -8 3 -11 62 -9 205 0 119 4 183 8 157 7 -43 7 -42 8 22 1 36 5 73 8 82
4 10 1 16 -7 16 -11 0 -14 23 -16 97 -1 54 -4 124 -8 155 -6 48 -3 63 15 95
l21 38 -23 45 c-20 39 -23 54 -17 105 4 33 6 270 5 526 -1 453 0 466 18 461
16 -4 18 -1 12 24 -16 63 -18 94 -7 94 6 0 11 9 11 20 0 11 -4 20 -10 20 -5 0
-10 -4 -10 -10 0 -5 -7 -10 -15 -10 -8 0 -15 5 -15 10 0 6 -27 10 -61 10 l-61
0 3 -147 c2 -82 0 -153 -4 -159 -4 -7 0 -14 8 -18 16 -6 21 -71 6 -80 -5 -3
-7 -66 -5 -138 2 -73 6 -195 8 -272 2 -82 8 -142 15 -149 13 -13 15 -51 2 -43
-5 4 -11 -11 -14 -31 -8 -58 -7 -83 4 -83 13 0 11 -78 -2 -82 -8 -3 -10 -61
-9 -193 2 -105 3 -251 2 -325 -3 -523 -5 -595 -15 -602 -8 -5 -7 -14 2 -31 10
-18 13 -122 14 -435 1 -229 -2 -413 -7 -415 -13 -4 16 -250 32 -266 11 -11 12
-42 6 -152 -5 -102 -4 -139 5 -139 6 0 11 -17 11 -40 0 -22 -4 -40 -10 -40 -5
0 -10 -18 -10 -40 0 -22 4 -40 9 -40 5 0 11 -18 13 -40 2 -28 0 -40 -9 -40
-17 0 -17 -56 0 -64 10 -5 10 -7 0 -12 -7 -3 -13 -20 -13 -37 0 -24 3 -28 10
-17 8 13 10 12 10 -2 0 -10 -3 -18 -7 -18 -5 0 -8 -23 -8 -52 0 -34 -5 -58
-17 -74 -20 -25 -23 -44 -8 -44 6 0 10 -18 10 -40 0 -22 4 -40 8 -40 4 0 6
-108 4 -240 -4 -217 -3 -240 12 -240 12 0 16 -10 16 -40 0 -29 -4 -40 -15 -40
-18 0 -20 -25 -15 -242 2 -141 1 -158 -14 -158 -9 0 -16 -8 -16 -20 0 -11 5
-20 10 -20 6 0 10 -9 10 -20 0 -11 -4 -20 -10 -20 -6 0 -10 -47 -10 -120 0
-73 4 -120 10 -120 6 0 10 -18 10 -40 0 -29 4 -40 15 -40 11 0 15 -12 15 -49
0 -49 -8 -63 -54 -86 -11 -7 -20 -17 -18 -23 3 -17 -34 -15 -52 3 -9 9 -34 15
-66 15 -37 0 -59 6 -77 20 -14 11 -34 20 -44 20 -10 0 -24 10 -30 23 -7 12
-18 27 -26 32 -14 10 -18 51 -30 265 -2 52 -9 99 -14 105 -5 5 -9 24 -9 42 0
18 -4 33 -9 33 -13 0 -25 151 -13 159 6 4 14 41 18 84 7 74 6 77 -15 77 -15 0
-21 7 -23 23 0 12 -3 40 -4 62 -2 22 -5 85 -7 140 -4 120 -20 235 -40 292 -8
23 -11 44 -7 45 16 6 13 83 -4 116 -13 25 -18 64 -20 160 -3 122 -15 260 -36
405 -6 37 -10 85 -10 107 0 21 -4 42 -10 45 -13 8 -13 42 0 47 13 4 16 148 4
156 -5 4 -10 41 -12 82 -2 41 -7 77 -13 78 -14 5 -11 80 4 85 9 3 6 15 -10 44
-19 33 -23 54 -21 119 2 120 -12 384 -23 428 -13 49 -18 121 -19 304 0 118 -3
142 -15 142 -18 0 -19 23 -4 53 9 16 9 22 0 25 -14 5 -15 42 -1 42 6 0 10 9
10 20 0 11 -4 20 -8 20 -10 0 -13 18 -13 80 1 66 -17 188 -31 213 -12 22 -12
47 -2 190 3 51 2 77 -5 77 -6 0 -12 -19 -12 -42 l-2 -43 -7 50 c-4 28 -3 97 2
155 10 104 4 342 -9 364 -10 16 -3 70 10 78 9 5 7 16 -6 37 -12 20 -17 51 -17
103 0 40 -5 102 -11 138 -5 36 -11 136 -14 223 -2 103 -8 164 -16 173 -8 10
-10 41 -5 109 l6 95 -103 0 -104 0 -6 -179 c-5 -117 -3 -189 4 -209 6 -17 9
-45 6 -64 -3 -30 -4 -29 -5 10 -1 23 -7 42 -13 42 -8 0 -10 -16 -5 -52 3 -29
9 -242 11 -473 3 -231 9 -445 14 -475 5 -30 7 -134 5 -230 -2 -96 -3 -211 -3
-255 1 -44 1 -213 2 -375 1 -165 6 -298 11 -302 10 -7 17 -261 17 -633 0 -131
3 -242 8 -245 5 -3 13 -180 19 -395 15 -564 15 -654 0 -672 -7 -9 -7 -17 -1
-25 15 -18 37 -473 28 -579 -6 -77 -4 -89 9 -89 14 0 16 -25 16 -202 l0 -203
-25 -12 c-14 -6 -27 -7 -31 -2 -3 5 -14 9 -25 9 -11 0 -18 4 -15 9 3 5 -1 14
-9 21 -12 10 -12 16 -4 26 9 11 7 15 -6 20 -13 5 -14 9 -4 15 11 6 11 35 2
151 -6 79 -9 167 -6 196 4 34 2 52 -5 52 -8 0 -11 79 -11 258 0 141 -5 302
-11 357 -6 55 -13 165 -15 245 -2 80 -6 210 -9 290 -11 280 -16 519 -21 950
-3 239 -7 489 -10 555 -3 66 -7 196 -10 289 -3 94 -9 172 -14 175 -4 3 -9 191
-9 416 -1 430 -11 1042 -17 1110 -14 143 -16 205 -8 240 5 22 7 84 5 138 l-4
97 -103 0 -102 0 -6 -56 c-3 -31 -2 -93 4 -138 6 -56 5 -112 -3 -179 -8 -74
-8 -101 0 -106 8 -4 11 -45 10 -118 0 -61 2 -116 6 -122 8 -13 9 -582 1 -1061
-2 -184 -6 -651 -7 -1037 -1 -387 -5 -703 -10 -703 -4 0 -8 -36 -8 -80 0 -47
4 -80 10 -80 16 0 12 -37 -12 -106 -19 -56 -20 -72 -12 -138 5 -42 6 -77 1
-79 -4 -1 -11 -37 -14 -80 -5 -67 -4 -77 11 -77 12 0 16 -9 16 -39 0 -22 -5
-41 -11 -43 -13 -4 -30 -728 -18 -763 4 -12 1 -94 -5 -184 -10 -132 -16 -166
-29 -176 -9 -7 -17 -20 -17 -29 0 -11 -9 -16 -30 -16 -16 0 -30 5 -30 11 0 6
-8 8 -18 4 -21 -6 -76 18 -65 28 3 4 -2 7 -11 7 -13 0 -17 7 -16 28 1 15 1 29
0 32 -8 23 -14 151 -25 630 -2 118 -7 256 -9 305 -5 94 -18 759 -22 1120 -1
116 -5 260 -8 320 -3 61 -6 299 -7 530 -1 373 -3 422 -18 441 -19 25 -17 114
3 114 9 0 13 32 13 120 0 66 -4 120 -9 120 -4 0 -8 36 -8 80 0 47 4 80 10 80
6 0 10 18 10 40 0 23 -5 40 -11 40 -8 0 -9 24 -4 80 6 72 5 80 -10 80 -16 0
-16 2 -1 23 26 35 30 48 17 56 -17 11 -26 552 -10 562 13 8 20 437 7 445 -3 2
-4 29 -1 59 l6 55 -166 0 c-186 0 -193 -3 -152 -65 35 -51 55 -92 49 -98 -3
-3 -3 -40 1 -81 7 -71 9 -76 30 -76 43 0 55 10 55 46 0 23 5 34 14 34 8 0 17
6 19 13 3 6 6 -12 6 -40 1 -36 5 -53 14 -53 16 0 39 -78 24 -83 -7 -2 -7 -33
0 -98 6 -52 9 -140 6 -196 -2 -57 -1 -103 4 -103 4 0 9 -54 10 -120 1 -72 -2
-120 -7 -120 -12 0 -13 -77 -2 -82 13 -5 24 -238 12 -238 -6 0 -10 -33 -10
-80 0 -47 4 -80 10 -80 6 0 10 -90 10 -249 0 -201 -3 -254 -15 -277 -13 -26
-13 -29 0 -32 17 -4 22 -78 5 -84 -14 -4 -15 -107 -2 -120 8 -8 12 -58 12
-149 0 -116 -2 -138 -16 -143 -9 -4 -14 -13 -10 -21 3 -10 -1 -15 -13 -15 -10
0 -21 9 -24 21 -4 15 -12 19 -33 17 l-27 -3 4 85 c2 47 2 231 0 410 -3 255 -6
333 -18 360 -8 19 -13 60 -12 90 2 69 -1 82 -11 50 -5 -15 -7 17 -4 80 l5 105
-20 -37 c-11 -20 -26 -66 -33 -102 -7 -36 -16 -66 -20 -66 -5 0 -8 -31 -8 -68
0 -38 -3 -72 -7 -76 -4 -4 -6 -25 -4 -48 1 -22 -1 -44 -7 -47 -5 -3 -12 -23
-15 -43 -4 -28 -2 -38 8 -38 7 0 16 10 18 23 4 20 4 19 6 -4 1 -29 -22 -45
-37 -26 -5 7 -15 29 -23 49 -7 20 -17 34 -21 31 -5 -3 -6 11 -2 32 4 23 3 36
-3 32 -5 -3 -22 45 -38 108 -16 62 -33 111 -38 108 -6 -3 -8 8 -5 25 2 17 1
29 -3 26 -5 -2 -13 5 -19 17 -13 23 -5 89 10 89 6 0 10 7 10 15 0 8 -4 15 -9
15 -17 0 -18 27 -9 260 5 129 10 368 13 530 4 316 11 476 20 491 4 5 3 29 -1
54 l-6 45 -2784 0 c-1806 0 -2784 -3 -2784 -10 0 -5 11 -17 25 -26 19 -12 25
-25 25 -51 0 -41 26 -84 46 -76 8 3 14 0 14 -7 0 -6 -4 -8 -10 -5 -5 3 -10 -1
-10 -9 0 -9 5 -16 10 -16 6 0 10 -7 10 -16 0 -8 5 -12 10 -9 5 3 10 1 10 -4 0
-6 5 -11 10 -11 6 0 10 18 10 40 0 38 2 40 30 40 17 0 30 5 30 11 0 6 6 9 12
6 7 -2 12 -15 10 -29 -2 -19 2 -27 17 -31 12 -3 21 -12 21 -21 0 -9 5 -16 10
-16 6 0 10 -18 10 -40 0 -30 4 -40 16 -40 13 0 15 -12 9 -88 -7 -79 -5 -91 14
-122 11 -19 21 -52 21 -72 0 -21 3 -38 8 -38 4 0 7 -96 6 -212 -1 -124 1 -194
5 -168 5 25 9 39 9 32 1 -7 7 -10 13 -7 6 4 8 13 5 21 -3 8 1 14 9 14 11 0 15
11 15 40 0 30 4 40 16 40 13 0 15 17 12 124 -2 96 0 122 10 119 8 -4 12 7 12
36 0 23 -4 41 -10 41 -5 0 -10 7 -10 15 0 8 7 15 15 15 8 0 15 5 15 10 0 6 7
10 15 10 8 0 15 7 15 15 0 8 5 15 10 15 6 0 10 -104 10 -293 0 -213 3 -296 12
-305 16 -16 11 -194 -5 -204 -9 -5 -8 -16 3 -40 12 -27 16 -100 19 -373 2
-187 2 -367 0 -400 -4 -97 -4 -148 6 -380 4 -121 8 -316 8 -432 0 -117 4 -213
8 -213 5 0 9 -11 9 -25 0 -16 -6 -25 -16 -25 -13 0 -14 -6 -8 -32 4 -18 6
-105 5 -193 -6 -283 -6 -485 0 -502 3 -9 2 -43 -3 -75 -5 -39 -4 -66 3 -80 8
-16 8 -22 -2 -29 -11 -6 -11 -15 -3 -36 7 -19 8 -56 3 -103 -4 -41 -7 -297 -6
-568 1 -278 -2 -492 -7 -492 -5 0 -6 -30 -2 -67 8 -94 8 -358 1 -983 -5 -450
-9 -536 -21 -543 -11 -6 -12 -13 -3 -29 7 -14 8 -18 0 -14 -5 4 -19 -2 -31
-14 -11 -11 -27 -20 -35 -20 -8 0 -15 -7 -15 -15 0 -8 -7 -15 -15 -15 -8 0
-15 -5 -15 -11 0 -7 -10 -9 -26 -5 -20 5 -25 4 -21 -7 11 -29 -8 -37 -46 -19
l-36 17 -2 115 c-1 63 -5 216 -10 340 -9 229 -13 341 -22 649 -4 100 -11 186
-18 203 -8 21 -10 63 -5 144 4 83 3 114 -5 114 -9 0 -10 36 -5 135 4 83 3 141
-3 153 -5 10 -12 72 -15 138 -3 68 -12 140 -20 164 -9 26 -11 47 -6 50 9 6 -5
404 -15 419 -2 4 -6 119 -9 255 -3 137 -10 255 -16 266 -5 10 -10 32 -10 49 0
17 -3 31 -7 31 -5 0 -9 37 -10 83 -1 45 -9 127 -18 182 -9 56 -17 180 -18 283
-2 129 -6 185 -15 191 -8 5 -15 69 -22 192 -12 195 -22 397 -22 439 0 14 -5
117 -10 230 -5 113 -11 244 -12 292 -1 47 -7 92 -13 100 -7 9 -7 39 0 96 7 53
7 86 1 90 -5 4 -9 84 -9 187 0 132 -5 203 -18 267 -15 75 -17 154 -19 617 l-1
531 -268 0 -269 0 0 -22z m6498 -98 c-4 -63 -28 -65 -28 -2 0 27 3 52 7 56 14
14 24 -13 21 -54z m-536 -9 c10 -14 13 -92 11 -362 -3 -414 -2 -380 -15 -512
-6 -59 -15 -110 -20 -113 -4 -3 -5 -10 -2 -16 4 -6 1 -8 -7 -6 -8 3 -13 11
-12 17 2 6 -2 11 -9 11 -20 0 -98 89 -92 105 4 8 1 15 -5 15 -6 0 -11 5 -11
10 0 6 7 10 15 10 8 0 15 -4 15 -10 0 -5 5 -10 10 -10 17 0 11 18 -9 25 -17 5
-18 17 -13 203 2 108 9 199 13 200 13 5 11 242 -1 242 -16 0 -12 99 6 130 15
25 87 80 105 80 5 0 14 -8 21 -19z m-377 -181 c17 -4 24 -8 17 -9 -10 -1 -11
-10 -6 -33 12 -52 13 -241 2 -262 -6 -12 -7 -21 0 -25 5 -3 11 -28 14 -54 5
-42 3 -50 -17 -63 -26 -17 -42 -59 -19 -50 8 3 14 -1 14 -9 0 -8 -3 -15 -6
-15 -9 0 -173 112 -185 127 -6 7 -16 13 -21 13 -6 0 -32 16 -58 35 -26 19 -52
35 -58 35 -5 0 -15 7 -22 15 -7 9 -18 14 -24 12 -6 -2 -30 6 -53 19 -24 12
-56 25 -72 29 -28 6 -29 7 -13 26 9 10 24 19 34 19 10 0 18 4 18 8 0 5 19 15
43 22 68 21 116 44 117 56 0 6 18 17 40 24 22 7 40 17 40 22 0 4 9 8 20 8 11
0 25 9 32 20 7 11 24 20 38 20 14 0 32 5 40 10 17 11 42 11 85 0z m-4284 -200
l-9 -55 -1 65 c-1 39 3 60 8 55 6 -6 6 -33 2 -65z m314 -203 c0 -92 3 -167 8
-167 4 0 7 -36 7 -80 0 -67 3 -80 16 -80 12 0 14 -5 8 -17 -15 -32 -16 -182
-2 -251 11 -51 14 -159 13 -462 -1 -307 1 -404 12 -434 15 -45 17 -116 3 -116
-5 0 -10 -18 -10 -40 0 -22 5 -40 10 -40 6 0 10 -18 10 -40 0 -22 -4 -40 -10
-40 -13 0 -13 -77 0 -82 6 -2 12 -91 14 -223 3 -121 8 -282 11 -357 5 -106 4
-138 -6 -138 -9 0 -11 -27 -6 -117 4 -65 10 -119 15 -121 10 -3 3 -121 -10
-144 -5 -12 -5 -18 1 -18 7 0 11 -83 11 -232 1 -128 1 -240 1 -248 1 -8 -3
-58 -7 -111 -4 -65 -3 -113 5 -144 8 -33 9 -51 1 -60 -7 -8 -8 -52 -2 -136 5
-68 6 -133 2 -144 -3 -11 -3 -65 0 -120 4 -69 2 -112 -7 -139 -15 -45 -17
-103 -4 -108 16 -5 13 -245 -4 -282 -5 -11 -3 -78 3 -155 13 -165 13 -361 0
-361 -6 0 -8 -97 -4 -257 4 -198 2 -262 -8 -275 -11 -15 -13 -15 -25 4 -18 28
-27 128 -12 128 7 0 11 27 11 80 0 49 -4 80 -10 80 -7 0 -10 20 -9 50 2 35 -2
55 -14 68 -14 15 -17 41 -17 150 0 81 4 132 10 132 14 0 12 78 -2 82 -12 4 -8
18 14 52 8 12 9 20 3 22 -6 3 -9 34 -7 80 3 52 0 79 -7 84 -9 5 -12 66 -11
216 0 115 -5 256 -11 312 -10 87 -10 105 2 112 11 7 11 15 0 45 -10 29 -17
266 -12 440 2 38 -10 560 -14 685 -3 69 -9 275 -13 459 -6 250 -11 336 -20
339 -14 4 -16 32 -2 32 6 0 10 -5 10 -12 0 -6 3 -9 6 -5 11 10 3 308 -10 416
-8 59 -13 168 -11 246 2 96 -2 158 -11 197 -9 36 -11 65 -5 80 13 35 13 755
-1 882 -9 88 -8 110 2 116 10 6 14 40 14 122 1 84 5 120 16 138 9 14 21 38 28
53 7 16 18 27 24 25 9 -3 13 -50 13 -171z m310 91 c45 -7 77 -19 94 -35 8 -9
26 -13 43 -11 19 3 28 0 28 -9 0 -8 4 -12 10 -8 5 3 37 -1 72 -10 35 -8 84
-17 111 -21 26 -3 47 -9 47 -15 0 -5 18 -9 40 -9 22 0 40 -4 40 -9 0 -8 56
-22 149 -38 23 -4 29 -8 20 -14 -11 -7 -12 -12 -1 -29 6 -11 12 -25 12 -31 0
-6 7 -17 15 -26 13 -12 15 -29 9 -84 -6 -66 -6 -69 15 -69 11 0 21 -4 21 -10
0 -5 7 -7 15 -4 10 4 15 20 15 44 0 37 27 100 43 100 4 0 7 16 7 35 0 19 5 35
11 35 6 0 24 9 40 21 24 17 29 18 29 5 0 -14 17 -16 109 -15 81 0 122 -4 160
-18 28 -10 51 -21 51 -25 0 -3 -8 -14 -17 -24 -17 -17 -16 -17 12 -10 l30 7
-27 -25 c-15 -15 -33 -26 -40 -27 -10 0 -10 -2 -1 -6 8 -3 -1 -18 -25 -41 -21
-20 -51 -55 -67 -77 -39 -53 -51 -65 -64 -65 -6 0 -8 -7 -5 -15 4 -8 1 -15 -5
-15 -6 0 -11 -5 -11 -11 0 -6 -11 -25 -25 -43 -14 -18 -25 -36 -25 -40 0 -4
-11 -22 -25 -40 -14 -18 -25 -38 -25 -43 0 -6 -11 -21 -25 -34 -13 -13 -25
-29 -25 -35 0 -7 -9 -14 -21 -17 -15 -4 -19 -11 -15 -25 4 -11 0 -24 -9 -32
-13 -11 -14 -8 -9 19 4 20 3 31 -5 31 -6 0 -11 -5 -11 -12 0 -19 -14 1 -17 25
-2 12 -7 23 -12 25 -5 2 -6 40 -4 86 6 83 -2 145 -15 132 -8 -8 -12 -222 -5
-249 2 -9 7 -15 11 -13 15 9 4 -62 -16 -104 -26 -55 -29 -78 -7 -60 20 17 21
-9 0 -36 -8 -10 -15 -28 -15 -40 0 -11 -7 -29 -15 -40 -8 -10 -15 -28 -15 -39
0 -32 -21 -97 -28 -90 -4 4 -15 -49 -26 -117 -19 -130 -30 -470 -15 -499 4 -8
10 -40 12 -70 5 -52 13 -109 23 -156 3 -17 0 -23 -13 -23 -17 -1 -17 -2 -1
-13 9 -7 17 -26 19 -42 2 -17 8 -36 13 -43 5 -7 9 -42 8 -78 0 -37 3 -62 9
-59 5 4 9 -1 9 -9 0 -9 -5 -16 -11 -16 -6 0 -9 -10 -7 -22 2 -13 8 -23 15 -23
6 0 14 -3 18 -7 4 -3 -5 -5 -19 -4 -25 3 -25 2 -19 -43 3 -25 6 -74 6 -108 0
-38 4 -63 10 -63 6 0 1 -9 -10 -19 -15 -14 -22 -38 -27 -85 -4 -36 -14 -70
-22 -77 -18 -15 -18 -29 1 -29 12 0 15 -13 13 -70 -2 -38 -7 -70 -12 -70 -4 0
-5 -12 -2 -27 15 -63 17 -80 17 -130 1 -35 -5 -58 -15 -69 -9 -9 -16 -32 -16
-55 0 -21 -4 -39 -10 -39 -15 0 -12 -78 2 -82 10 -4 9 -13 -4 -39 -13 -26 -18
-71 -22 -196 -2 -94 0 -163 5 -163 5 0 10 19 10 43 l1 42 8 -40 c4 -22 4 -48
-1 -57 -5 -9 -9 -28 -9 -42 0 -16 -6 -26 -15 -26 -8 0 -15 -6 -15 -14 0 -7 7
-19 15 -26 12 -10 15 -44 15 -185 0 -96 -4 -175 -8 -177 -5 -1 -12 -26 -15
-55 -4 -38 -2 -55 9 -63 22 -19 17 -60 -11 -82 -29 -22 -32 -38 -9 -38 14 0
15 -6 8 -32 -11 -42 -13 -316 -2 -345 4 -14 4 -23 -2 -23 -13 0 -4 -184 10
-210 14 -26 13 -187 -1 -192 -14 -5 -1 -158 13 -155 6 1 11 -10 12 -25 2 -25
-5 -33 -26 -29 -5 0 -8 -8 -8 -20 0 -18 -4 -20 -27 -15 -16 3 -22 3 -15 0 17
-8 15 -27 -3 -20 -8 3 -19 -3 -24 -13 -7 -13 -18 -17 -36 -14 -18 4 -25 1 -25
-10 0 -16 -40 -30 -63 -21 -8 3 -17 -2 -20 -11 -5 -11 -14 -14 -34 -9 -21 4
-24 3 -13 -5 16 -11 20 -10 -63 -33 -27 -7 -53 -21 -59 -31 -7 -14 -16 -17
-39 -12 -23 5 -28 4 -23 -8 4 -10 -4 -16 -25 -19 -25 -4 -31 -1 -31 13 0 11
-9 19 -22 21 -20 3 -24 11 -30 58 -10 90 -9 280 2 280 6 0 10 18 10 40 0 22
-4 40 -10 40 -5 0 -10 18 -10 40 0 22 5 40 10 40 15 0 13 80 -2 81 -10 0 -10
2 0 6 14 6 17 53 2 53 -5 0 -10 23 -10 50 0 28 5 50 10 50 6 0 10 27 10 60 0
33 -4 60 -10 60 -6 0 -10 40 -10 100 0 82 -3 100 -15 100 -11 0 -15 11 -15 39
0 22 4 41 9 43 13 4 14 180 2 318 -5 63 -7 143 -4 178 5 53 3 62 -11 62 -20 0
-21 23 -1 40 16 13 22 120 6 120 -15 0 -21 122 -10 212 9 66 9 91 0 102 -14
17 -6 399 9 404 15 5 12 18 -7 38 -15 14 -17 34 -16 113 5 251 3 318 -11 359
-10 28 -11 44 -5 48 6 4 9 37 8 80 -2 40 0 76 4 80 10 10 9 164 -2 164 -4 0
-11 71 -15 158 -12 286 -16 397 -15 422 3 74 3 119 -5 385 -5 160 -10 360 -11
445 -2 85 -8 179 -14 208 -6 31 -7 61 -2 70 4 10 11 29 15 45 5 20 3 27 -9 27
-12 0 -15 15 -15 79 0 54 4 81 13 84 10 3 10 9 0 26 -7 11 -13 52 -13 91 0 39
6 80 13 91 10 17 10 23 0 26 -18 6 -16 31 2 49 8 9 15 20 15 25 0 5 -7 9 -15
9 -8 0 -15 6 -15 13 0 14 79 16 155 5z m-626 -238 c-4 -14 -7 29 -7 100 l1
125 7 -100 c4 -55 3 -111 -1 -125z m-2 -162 c-2 -13 -4 -3 -4 22 0 25 2 35 4
23 2 -13 2 -33 0 -45z m4823 -386 c0 -15 -2 -15 -10 -2 -13 20 -13 33 0 25 6
-3 10 -14 10 -23z m-3370 -36 c0 -3 -4 -8 -10 -11 -5 -3 -10 -1 -10 4 0 6 5
11 10 11 6 0 10 -2 10 -4z m-82 -90 c-7 -8 -15 -12 -17 -11 -5 6 10 25 20 25
5 0 4 -6 -3 -14z m5689 -298 c-3 -7 -5 -2 -5 12 0 14 2 19 5 13 2 -7 2 -19 0
-25z m-2047 -143 c0 -12 -29 -3 -34 10 -4 13 -2 14 14 5 11 -6 20 -13 20 -15z
m10 -67 c0 -16 -3 -19 -11 -11 -6 6 -8 16 -5 22 11 17 16 13 16 -11z m-1780
-103 c0 -8 -4 -15 -10 -15 -5 0 -10 7 -10 15 0 8 5 15 10 15 6 0 10 -7 10 -15z
m200 2 c0 -4 8 -17 19 -28 17 -19 19 -19 36 -3 14 15 18 15 26 3 8 -12 10 -12
18 0 8 12 12 12 25 -2 17 -17 21 -39 9 -51 -5 -4 -9 -12 -9 -17 -1 -5 -2 -13
-3 -18 0 -6 -18 -8 -38 -5 -21 2 -32 2 -25 -2 6 -3 12 -13 13 -22 0 -11 2 -12
6 -4 7 17 23 15 23 -3 0 -9 -10 -15 -26 -15 -14 0 -35 -5 -46 -11 -17 -9 -18
-13 -7 -20 10 -6 11 -9 1 -9 -7 0 -21 5 -31 12 -31 19 -54 -6 -46 -51 3 -20 2
-47 -3 -61 l-9 -24 -16 33 c-9 19 -15 37 -12 41 7 12 -29 6 -37 -6 -4 -5 0
-41 9 -78 14 -62 12 -96 -5 -69 -12 19 -38 -8 -46 -48 -5 -28 -13 -37 -40 -47
-22 -8 -39 -24 -48 -42 -8 -19 -23 -32 -40 -36 -24 -5 -28 -11 -28 -38 0 -42
-29 -58 -92 -52 -58 6 -68 11 -68 37 0 11 -8 22 -17 26 -10 3 -26 13 -35 20
-9 8 -20 13 -25 10 -4 -2 -46 2 -93 10 -47 8 -96 15 -110 16 -17 1 -26 9 -28
24 -2 12 -12 25 -23 28 -10 4 -19 13 -19 20 0 18 -160 93 -211 99 -41 5 -64
15 -38 17 8 1 17 1 22 0 4 0 7 4 7 9 0 6 -5 10 -11 10 -8 0 -7 5 1 15 9 11 15
12 20 5 4 -6 18 5 33 27 19 27 23 39 14 45 -20 12 6 28 54 32 44 3 58 7 116
32 17 8 35 14 40 14 6 0 15 11 21 24 15 34 50 41 58 11 3 -13 4 -28 1 -32 -9
-14 9 -36 22 -29 6 4 11 18 11 31 0 28 18 43 26 21 5 -13 10 -13 40 0 19 8 39
12 44 9 14 -9 50 13 50 30 0 8 7 15 15 15 8 0 15 4 15 9 0 4 54 14 120 21 108
11 120 14 120 32 0 18 1 18 16 4 20 -21 30 -20 44 2 7 11 13 13 16 6 3 -7 14
-10 24 -7 11 3 18 9 15 13 -7 12 13 23 26 14 8 -4 7 -9 -2 -15 -10 -6 -8 -9 8
-9 15 0 21 5 17 14 -4 10 3 16 23 18 43 6 63 5 63 -5z m-410 -47 c0 -5 -7 -10
-15 -10 -8 0 -15 5 -15 10 0 6 7 10 15 10 8 0 15 -4 15 -10z m580 -64 c0 -2
-7 -7 -16 -10 -8 -3 -12 -2 -9 4 6 10 25 14 25 6z m-190 -107 c0 -6 -4 -7 -10
-4 -5 3 -10 11 -10 16 0 6 5 7 10 4 6 -3 10 -11 10 -16z m30 -13 c0 -2 -7 -9
-15 -16 -13 -11 -14 -10 -9 4 5 14 24 23 24 12z m-1095 -46 c3 -5 -1 -10 -10
-10 -9 0 -13 5 -10 10 3 6 8 10 10 10 2 0 7 -4 10 -10z m1470 -170 c3 -5 1
-10 -4 -10 -6 0 -11 5 -11 10 0 6 2 10 4 10 3 0 8 -4 11 -10z m-1035 -140 c0
-5 -4 -10 -9 -10 -6 0 -13 5 -16 10 -3 6 1 10 9 10 9 0 16 -4 16 -10z m926
-82 c1 -8 5 -25 9 -37 6 -20 3 -21 -48 -21 -66 0 -70 16 -17 55 37 27 52 28
56 3z m-313 -64 c13 -13 -14 -46 -34 -41 -10 3 -19 0 -19 -6 0 -18 -14 3 -15
24 -1 11 3 18 10 15 7 -2 18 0 26 5 17 10 24 11 32 3z m479 -57 c-24 -7 -36
-7 -44 1 -9 9 -1 12 33 11 l44 -1 -33 -11z m-1595 -43 c-3 -3 -12 -4 -19 -1
-8 3 -5 6 6 6 11 1 17 -2 13 -5z m2983 -11 c0 -5 -5 -15 -10 -23 -8 -12 -10
-11 -10 8 0 12 5 22 10 22 6 0 10 -3 10 -7z m-3000 -13 c-8 -5 -19 -10 -25
-10 -5 0 -3 5 5 10 8 5 20 10 25 10 6 0 3 -5 -5 -10z m1538 3 c-10 -2 -26 -2
-35 0 -10 3 -2 5 17 5 19 0 27 -2 18 -5z m-1498 -43 c-8 -5 -22 -9 -30 -9 -10
0 -8 3 5 9 27 12 43 12 25 0z m217 -17 c17 -3 34 -12 38 -21 4 -12 3 -13 -10
-2 -13 11 -14 10 -10 -2 3 -8 0 -15 -7 -16 -7 0 -29 -3 -49 -6 -34 -5 -37 -3
-42 22 -7 35 0 45 27 37 11 -3 35 -8 53 -12z m76 -10 c-7 -2 -19 -2 -25 0 -7
3 -2 5 12 5 14 0 19 -2 13 -5z m-283 -23 c0 -5 -4 -10 -10 -10 -5 0 -10 5 -10
10 0 6 5 10 10 10 6 0 10 -4 10 -10z m-1020 -31 c0 -5 -4 -9 -10 -9 -5 0 -10
7 -10 16 0 8 5 12 10 9 6 -3 10 -10 10 -16z m25 11 c3 -5 1 -10 -4 -10 -6 0
-11 5 -11 10 0 6 2 10 4 10 3 0 8 -4 11 -10z m-2080 -93 c13 -101 16 -152 20
-337 9 -426 20 -607 41 -672 3 -11 2 -23 -3 -27 -6 -3 -7 -37 -2 -81 4 -42 3
-76 -2 -78 -14 -5 -11 -82 3 -82 8 0 9 -88 3 -357 -5 -197 -8 -378 -8 -403 1
-25 4 -238 7 -475 3 -236 9 -549 12 -695 13 -586 12 -960 -2 -975 -8 -7 -14
-25 -14 -38 0 -14 -7 -30 -15 -37 -8 -7 -15 -19 -15 -27 0 -11 -5 -13 -17 -8
-10 4 -28 10 -40 12 -21 5 -22 10 -23 142 -1 75 -1 154 0 176 4 127 -4 440
-11 445 -8 6 -30 470 -23 481 3 5 0 75 -6 156 -6 81 -11 302 -10 490 0 188 -4
390 -9 450 -20 224 -13 497 15 560 11 25 15 113 19 415 6 471 13 762 21 848 6
76 31 170 44 170 5 0 12 -24 15 -53z m2885 49 c0 -2 -7 -6 -15 -10 -8 -3 -15
-1 -15 4 0 6 7 10 15 10 8 0 15 -2 15 -4z m3040 -19 c9 -7 17 -24 18 -39 1
-15 6 -67 12 -114 7 -68 6 -92 -4 -112 -8 -16 -16 -21 -20 -13 -4 6 -2 11 3
11 6 0 11 5 11 11 0 6 -7 8 -16 5 -24 -9 -74 16 -74 36 0 25 -15 22 -32 -4
l-15 -22 -12 22 c-8 15 -9 28 -1 41 5 11 7 26 4 34 -3 9 1 28 9 44 8 15 12 33
10 39 -4 13 62 74 80 74 7 0 19 -6 27 -13z m-2845 -37 c-3 -5 -10 -10 -16 -10
-5 0 -9 5 -9 10 0 6 7 10 16 10 8 0 12 -4 9 -10z m100 -20 c-3 -5 -14 -10 -23
-10 -15 0 -15 2 -2 10 20 13 33 13 25 0z m50 -19 c-6 -5 -26 -11 -45 -15 -35
-5 -35 -5 5 9 50 17 51 17 40 6z m1262 -81 c37 0 46 -4 50 -21 3 -11 9 -16 12
-10 4 6 18 7 31 4 22 -6 23 -7 4 -15 -12 -5 -3 -7 29 -4 36 3 47 0 47 -11 0
-8 4 -12 9 -9 13 8 42 -4 35 -15 -7 -12 26 -24 35 -12 8 12 81 14 81 2 0 -6 7
-6 18 -1 9 4 45 6 80 4 51 -3 62 -7 62 -22 0 -21 16 -35 50 -43 27 -7 50 -52
50 -97 0 -18 3 -21 12 -12 20 20 46 -22 45 -76 0 -40 -6 -51 -39 -85 -21 -21
-38 -34 -38 -28 0 6 -4 11 -10 11 -5 0 -7 -7 -4 -15 5 -11 -1 -15 -22 -15 -16
0 -46 -5 -67 -11 -34 -9 -38 -13 -33 -35 5 -17 2 -24 -8 -24 -9 0 -17 15 -21
40 -5 30 -11 40 -26 40 -12 0 -21 9 -25 25 -3 14 -10 25 -15 25 -5 0 -9 7 -9
15 0 8 -8 15 -18 15 -9 0 -29 11 -44 25 -15 14 -37 25 -48 25 -14 0 -24 8 -27
20 -4 15 -11 19 -24 15 -10 -4 -24 -3 -31 1 -9 6 -5 10 12 15 22 6 20 7 -11 8
-20 1 -39 4 -43 9 -4 4 -13 7 -19 7 -7 0 -13 10 -15 23 -3 17 -10 22 -33 22
-24 0 -29 3 -25 18 4 12 -3 22 -24 34 -17 9 -30 24 -30 32 0 9 -14 23 -31 31
-33 17 -75 56 -72 66 1 4 -5 6 -14 5 -9 0 -18 4 -20 11 -5 13 61 23 111 17 16
-2 49 -4 73 -4z m700 -252 c-2 -13 -4 -3 -4 22 0 25 2 35 4 23 2 -13 2 -33 0
-45z m1923 52 c0 -5 -4 -10 -9 -10 -6 0 -13 5 -16 10 -3 6 1 10 9 10 9 0 16
-4 16 -10z m-4983 -32 c-3 -8 -6 -5 -6 6 -1 11 2 17 5 13 3 -3 4 -12 1 -19z
m1223 -14 c0 -9 -9 -25 -21 -35 -14 -12 -19 -24 -14 -38 3 -12 2 -21 -3 -21
-9 0 -12 -12 -15 -65 -1 -24 -9 -38 -24 -46 -25 -14 -32 -34 -8 -25 10 4 15
-1 15 -14 0 -12 -5 -17 -13 -14 -10 4 -12 -3 -9 -27 3 -20 0 -36 -9 -43 -8 -6
-14 -18 -14 -26 0 -8 -10 -19 -21 -25 -33 -16 -54 -36 -49 -45 8 -13 -6 -40
-21 -40 -8 0 -19 -9 -26 -20 -7 -11 -17 -20 -22 -20 -5 0 -16 -9 -25 -19 -11
-13 -35 -21 -71 -24 -30 -3 -64 -7 -75 -9 -18 -3 -20 2 -17 38 2 28 -2 45 -13
54 -12 10 -13 16 -4 26 8 10 8 14 0 14 -6 0 -11 6 -11 14 0 7 -10 20 -22 28
-21 14 -21 17 -9 57 13 45 29 49 46 13 5 -12 13 -22 17 -22 11 0 10 18 -2 25
-20 12 -9 22 40 35 28 8 50 19 50 27 0 7 5 13 10 13 6 0 16 11 22 25 8 18 17
24 29 20 11 -4 25 2 35 13 9 11 27 31 40 46 13 14 20 26 16 27 -4 0 1 4 11 8
10 4 18 11 17 16 -1 6 9 13 22 16 15 3 22 11 20 22 -2 14 2 16 24 11 21 -5 25
-4 19 6 -6 10 -1 12 18 8 19 -4 27 0 30 14 6 22 37 24 37 2z m1180 6 c0 -5 -2
-10 -4 -10 -3 0 -8 5 -11 10 -3 6 -1 10 4 10 6 0 11 -4 11 -10z m-2370 -31 c0
-6 -4 -7 -10 -4 -5 3 -10 11 -10 16 0 6 5 7 10 4 6 -3 10 -11 10 -16z m1755
-18 c3 -6 -3 -14 -12 -20 -14 -8 -2 -10 50 -11 47 0 67 4 67 13 0 7 5 5 10 -5
6 -9 24 -19 40 -23 35 -8 37 -17 9 -43 -11 -11 -21 -29 -22 -41 -1 -11 -9 -24
-19 -27 -10 -3 -18 -11 -18 -17 0 -7 -10 -18 -21 -26 -18 -10 -19 -15 -8 -22
11 -7 9 -9 -7 -9 -14 0 -24 -8 -29 -22 -4 -14 -8 -18 -12 -10 -2 6 -22 12 -43
12 -30 0 -43 -6 -59 -27 -15 -21 -20 -24 -21 -11 0 26 -18 31 -37 9 -17 -20
-17 -20 -39 4 -13 14 -31 25 -41 25 -20 0 -57 56 -47 71 3 6 1 16 -5 23 -11
14 11 56 30 56 6 0 18 8 27 17 13 13 14 17 4 21 -9 3 -7 9 8 19 19 14 23 13
36 -3 11 -14 17 -15 20 -6 3 6 16 12 29 12 28 0 41 15 20 24 -8 3 -15 10 -15
16 0 13 97 13 105 1z m401 -45 c1 -17 -5 -30 -15 -33 -9 -2 -24 -9 -35 -15
-12 -6 -22 -6 -29 1 -8 8 -5 11 12 11 12 0 19 4 16 10 -3 6 1 10 10 10 9 0 13
5 10 10 -10 16 3 42 18 38 6 -3 12 -17 13 -32z m165 -19 c-10 -9 -11 -8 -5 6
3 10 9 15 12 12 3 -3 0 -11 -7 -18z m2627 -8 c-2 -6 -8 -10 -13 -10 -5 0 -11
4 -13 10 -2 6 4 11 13 11 9 0 15 -5 13 -11z m-28 -55 c0 -8 -4 -14 -10 -14 -5
0 -10 9 -10 21 0 11 5 17 10 14 6 -3 10 -13 10 -21z m-1940 -30 c0 -8 -4 -12
-10 -9 -5 3 -10 10 -10 16 0 5 5 9 10 9 6 0 10 -7 10 -16z m880 7 c0 -5 -7
-14 -15 -21 -13 -10 -15 -9 -15 9 0 12 6 21 15 21 8 0 15 -4 15 -9z m-3736
-27 c10 -26 36 -157 36 -182 l0 -23 -29 20 c-21 15 -27 26 -24 44 3 14 -2 38
-11 55 -20 39 -20 42 4 42 11 0 20 5 20 10 0 6 -8 10 -17 8 -12 -2 -19 4 -21
20 -3 16 2 22 16 22 11 0 23 -7 26 -16z m2409 -13 c16 -6 25 -15 22 -21 -3 -5
0 -10 8 -10 15 0 28 -21 26 -43 0 -7 -4 -3 -8 8 -8 18 -10 17 -27 -12 -19 -32
-54 -45 -54 -20 0 8 -4 7 -10 -3 -8 -11 -9 -7 -4 15 7 28 6 29 -10 16 -16 -14
-17 -12 -14 20 2 26 7 34 21 32 15 -1 18 4 13 25 -4 15 -3 22 1 15 5 -6 21
-17 36 -22z m-1826 -27 c-3 -3 -12 -4 -19 -1 -8 3 -5 6 6 6 11 1 17 -2 13 -5z
m1743 -4 c0 -5 -2 -10 -4 -10 -3 0 -8 5 -11 10 -3 6 -1 10 4 10 6 0 11 -4 11
-10z m2530 -80 c0 -64 -3 -80 -15 -80 -12 0 -15 16 -15 80 0 64 3 80 15 80 12
0 15 -16 15 -80z m-3863 28 c-3 -8 -6 -5 -6 6 -1 11 2 17 5 13 3 -3 4 -12 1
-19z m-1088 -12 c14 -9 15 -36 1 -36 -5 0 -10 -7 -10 -16 0 -8 5 -12 11 -8 15
9 29 -15 29 -51 0 -36 19 -91 41 -126 24 -36 79 -201 79 -237 0 -80 75 -231
123 -248 10 -3 22 -17 27 -30 5 -13 15 -24 21 -24 8 0 7 -5 -2 -16 -10 -13
-10 -17 0 -24 8 -4 10 -13 6 -20 -4 -6 1 -17 11 -24 10 -8 15 -20 11 -30 -4
-9 -2 -27 3 -41 7 -18 5 -43 -5 -82 -8 -32 -15 -90 -15 -130 0 -42 -4 -73 -10
-73 -6 0 -10 -33 -10 -80 0 -47 4 -80 10 -80 6 0 10 -78 10 -214 0 -133 -4
-217 -10 -221 -15 -10 -12 -45 5 -45 15 0 13 -12 -10 -65 -8 -16 -16 -38 -19
-48 -4 -11 -15 -21 -26 -24 -23 -6 -26 -19 -7 -26 7 -3 5 -6 -5 -6 -25 -1 -25
-2 -68 -42 -43 -41 -180 -112 -227 -117 -27 -3 -31 0 -27 16 3 10 -2 24 -10
31 -9 8 -16 28 -16 45 0 18 -4 36 -10 42 -6 6 -6 34 0 74 12 92 10 391 -4 413
-8 13 -8 20 0 25 8 5 12 67 12 202 0 107 3 263 7 345 4 99 3 167 -5 200 -8 35
-8 51 -1 53 12 4 15 82 3 82 -4 0 -6 108 -4 240 2 210 1 240 -13 240 -11 0
-15 11 -15 40 0 44 25 58 33 18 3 -22 4 -22 12 -4 6 13 5 21 -3 24 -12 4 -17
103 -6 114 6 6 65 -5 83 -16z m3828 -8 c-3 -8 -6 -5 -6 6 -1 11 2 17 5 13 3
-3 4 -12 1 -19z m-12 -148 c6 19 10 3 16 -65 12 -121 11 -189 -1 -193 -6 -2
-8 -7 -5 -11 2 -4 4 -82 5 -172 0 -90 6 -215 12 -277 9 -88 9 -118 0 -132 -15
-24 -16 -50 -1 -50 7 0 9 -42 7 -130 -2 -71 -6 -130 -10 -130 -5 0 -9 10 -9
23 -2 22 -2 22 -6 0 -6 -32 -43 -27 -43 7 0 14 -7 38 -15 54 -8 15 -15 46 -15
67 0 22 -4 47 -10 57 -11 21 -32 201 -23 214 3 6 0 60 -7 120 -9 75 -10 112
-3 117 15 9 18 401 3 401 -18 0 -11 30 15 55 13 14 22 25 20 25 -2 0 6 10 18
23 l22 22 11 -25 10 -25 9 25z m-4015 -11 c0 -5 -7 -9 -15 -9 -12 0 -15 -16
-15 -80 0 -47 -4 -80 -10 -80 -6 0 -10 32 -10 75 0 56 4 80 17 94 16 19 33 19
33 0z m900 -5 c0 -2 -9 -4 -21 -4 -11 0 -18 4 -14 10 5 8 35 3 35 -6z m4230
-44 c0 -22 5 -40 10 -40 6 0 10 -60 10 -160 0 -100 4 -160 10 -160 6 0 10 -25
10 -55 0 -34 6 -65 16 -80 10 -15 12 -25 5 -25 -14 0 -14 -66 0 -145 5 -33 10
-84 10 -113 -1 -29 5 -62 12 -74 9 -16 9 -22 0 -25 -18 -6 -16 -43 1 -43 11 0
15 -24 19 -112 2 -62 7 -124 10 -138 4 -14 8 -102 8 -197 2 -164 1 -175 -22
-218 -13 -25 -27 -45 -30 -45 -4 0 -12 21 -19 48 -6 26 -16 56 -21 67 -5 11
-11 94 -13 185 -15 620 -24 884 -33 983 -5 58 -3 67 11 67 20 0 20 3 0 43 -12
21 -13 32 -5 35 18 6 14 82 -4 82 -12 0 -15 16 -15 80 0 64 3 80 15 80 11 0
15 -11 15 -40z m-5050 -50 c0 -5 -2 -10 -4 -10 -3 0 -8 5 -11 10 -3 6 -1 10 4
10 6 0 11 -4 11 -10z m2117 -34 c-16 -28 -38 -45 -60 -46 -10 0 -31 -10 -47
-21 -16 -12 -36 -19 -44 -16 -9 4 -16 3 -16 -1 0 -8 -83 -7 -105 2 -23 9 -7
33 23 34 15 0 45 5 67 11 22 6 62 16 89 23 26 6 50 17 53 24 2 6 15 12 28 12
21 0 22 -3 12 -22z m893 -101 c0 -10 -9 -15 -27 -14 -17 1 -21 3 -10 6 9 2 17
9 17 14 0 5 5 9 10 9 6 0 10 -7 10 -15z m-1200 -5 c0 -5 -5 -10 -11 -10 -5 0
-7 5 -4 10 3 6 8 10 11 10 2 0 4 -4 4 -10z m637 -40 c6 -25 12 -40 12 -33 1
19 49 65 60 58 6 -3 11 -24 11 -46 0 -29 -4 -39 -16 -39 -9 0 -12 5 -8 12 4 7
3 8 -4 4 -6 -4 -9 -13 -5 -21 7 -19 -11 -19 -27 0 -19 23 -30 18 -30 -14 0
-32 -30 -47 -61 -30 -24 12 -26 12 -32 -11 -7 -29 -72 -53 -119 -46 -34 6 -38
4 -38 -14 0 -32 -100 -73 -161 -68 -29 3 -53 0 -65 -9 -19 -14 -179 -19 -171
-5 3 4 -1 12 -8 19 -10 10 -16 9 -25 -2 -9 -10 -22 -13 -44 -9 -17 4 -60 6
-96 6 -71 -2 -75 2 -99 86 -8 27 -7 31 17 35 15 3 37 -1 49 -9 21 -13 25 -12
44 7 18 18 30 21 73 16 74 -7 257 24 286 48 28 23 138 57 171 53 19 -3 45 2
67 14 45 22 70 23 94 2 16 -16 18 -16 24 0 3 9 12 16 19 16 7 0 16 7 19 16 3
9 15 14 28 12 18 -2 26 -13 35 -48z m550 -72 c-3 -8 -6 -5 -6 6 -1 11 2 17 5
13 3 -3 4 -12 1 -19z m-1477 -148 c0 -14 -5 -18 -17 -13 -23 8 -32 23 -26 39
7 20 43 -2 43 -26z m1397 -12 c-3 -8 -6 -5 -6 6 -1 11 2 17 5 13 3 -3 4 -12 1
-19z m-737 -128 c9 -6 11 -10 3 -10 -7 0 -10 -7 -7 -15 5 -11 -1 -15 -18 -15
-16 0 -35 -12 -51 -31 -23 -28 -26 -29 -36 -12 -6 10 -11 13 -11 6 0 -16 -40
-12 -40 4 0 12 6 15 40 17 8 1 20 12 26 24 8 17 13 20 17 10 4 -8 6 -7 6 5 1
14 6 17 21 12 11 -4 20 -2 20 4 0 13 10 14 30 1z m100 -140 c0 -5 -4 -10 -10
-10 -5 0 -10 5 -10 10 0 6 5 10 10 10 6 0 10 -4 10 -10z m50 0 c0 -5 -2 -10
-4 -10 -3 0 -8 5 -11 10 -3 6 -1 10 4 10 6 0 11 -4 11 -10z m-85 -20 c3 -5 -1
-10 -10 -10 -9 0 -13 5 -10 10 3 6 8 10 10 10 2 0 7 -4 10 -10z m261 -2 c4 -5
-1 -8 -12 -8 -16 0 -16 -2 -4 -10 8 -5 17 -5 20 -1 3 5 15 11 26 15 19 6 21 3
16 -19 -2 -14 -8 -28 -13 -31 -4 -2 -3 -16 3 -29 13 -30 -7 -89 -28 -81 -8 3
-14 2 -14 -3 0 -4 -10 -6 -22 -4 -17 3 -26 -2 -33 -19 -9 -21 -17 -23 -88 -24
-57 -1 -82 -5 -95 -18 -10 -9 -24 -16 -31 -16 -8 0 -10 -7 -5 -22 4 -13 7 -53
6 -90 -1 -66 10 -89 23 -48 8 24 28 26 45 5 7 -9 19 -14 27 -11 7 3 13 -1 13
-10 0 -8 4 -13 9 -10 5 4 25 -4 45 -16 26 -17 35 -30 36 -51 0 -16 -4 -26 -9
-22 -5 3 -12 1 -15 -4 -4 -5 -2 -12 4 -16 5 -3 8 -18 6 -33 -11 -72 -28 -88
-60 -56 -13 12 -14 20 -4 37 11 21 10 21 -8 7 -10 -8 -22 -19 -27 -25 -4 -6
-11 -3 -18 8 -11 19 -39 23 -39 5 0 -9 -3 -9 -12 0 -15 15 -48 16 -49 2 -1 -5
-2 -15 -3 -22 -1 -13 -26 -24 -26 -11 0 5 -14 17 -32 27 -27 16 -30 17 -25 3
4 -11 2 -14 -9 -10 -19 7 -18 -6 3 -29 16 -18 16 -18 -1 -12 -11 4 -21 2 -26
-7 -5 -7 -13 -10 -17 -5 -4 5 -2 11 5 13 6 3 12 9 12 15 0 6 -7 8 -15 4 -8 -3
-19 2 -24 12 -8 14 -12 15 -22 5 -11 -11 -10 -13 2 -13 12 0 12 -2 -1 -10 -13
-8 -12 -10 5 -10 26 0 8 -17 -25 -23 l-25 -4 26 -2 c18 -1 28 -8 32 -22 4 -17
3 -19 -6 -10 -6 6 -25 11 -43 11 -18 0 -37 7 -45 18 -13 15 -12 16 4 3 9 -7
17 -9 17 -4 0 11 -63 68 -72 65 -5 -1 -8 2 -8 7 0 13 43 10 52 -4 4 -5 8 0 8
13 0 16 -6 22 -22 23 -23 1 -23 1 1 8 25 7 42 36 33 59 -2 7 6 21 18 32 l23
20 -24 0 c-26 1 -26 0 30 40 24 16 30 85 9 93 -8 3 -5 6 5 6 12 1 17 7 15 19
-3 14 -16 18 -77 20 -49 2 -77 -1 -81 -9 -6 -8 -13 -8 -26 0 -18 10 -18 11 4
17 12 3 22 10 22 15 0 13 65 11 110 -2 27 -8 43 -8 56 -1 11 6 13 12 7 12 -8
0 -13 12 -12 28 1 16 3 20 6 10 2 -10 11 -18 19 -18 8 0 15 8 15 18 1 16 2 16
6 0 2 -10 9 -18 15 -18 5 0 8 -7 4 -15 -3 -8 -1 -15 4 -15 6 0 10 8 10 18 0
15 6 17 35 14 19 -2 38 -8 41 -13 7 -12 24 -12 24 0 0 14 -58 34 -85 29 -14
-3 -25 -2 -25 3 0 4 -3 16 -6 26 -4 13 -3 15 4 4 10 -13 57 -6 48 8 -9 14 10
28 49 38 23 6 39 15 37 22 -1 7 7 15 18 18 11 3 20 11 20 17 0 8 11 11 30 8
18 -3 30 0 30 7 0 6 -9 11 -20 11 -11 0 -20 5 -20 10 0 6 20 10 44 10 25 0 48
5 51 10 5 8 12 7 22 -2 13 -10 18 -9 31 8 16 20 53 26 68 12z m-311 -98 c3 -5
2 -10 -4 -10 -5 0 -13 5 -16 10 -3 6 -2 10 4 10 5 0 13 -4 16 -10z m-318 -82
c-3 -8 -6 -5 -6 6 -1 11 2 17 5 13 3 -3 4 -12 1 -19z m143 -54 c0 -8 -4 -12
-10 -9 -5 3 -10 10 -10 16 0 5 5 9 10 9 6 0 10 -7 10 -16z m-3833 -116 c-2
-13 -4 -3 -4 22 0 25 2 35 4 23 2 -13 2 -33 0 -45z m5780 -64 c-3 -3 -12 -4
-19 -1 -8 3 -5 6 6 6 11 1 17 -2 13 -5z m-1501 -100 c-4 -9 -9 -15 -11 -12 -3
3 -3 13 1 22 4 9 9 15 11 12 3 -3 3 -13 -1 -22z m-1564 -22 c7 -11 19 -21 27
-23 14 -5 32 -49 55 -131 7 -26 9 -45 4 -42 -5 4 -16 -3 -24 -15 -11 -15 -26
-21 -50 -21 -21 0 -33 -4 -29 -10 3 -5 -1 -10 -9 -10 -9 0 -16 5 -16 10 0 6
-7 10 -15 10 -8 0 -15 9 -15 20 0 22 16 27 23 8 2 -8 8 -9 13 -4 5 5 4 11 -3
13 -8 3 -13 22 -13 44 0 28 -4 39 -15 39 -10 0 -15 10 -15 34 0 48 9 66 32 66
14 0 18 5 14 15 -8 22 20 19 36 -3z m1560 -82 c-6 -15 -11 -19 -16 -12 -4 7
-1 18 6 26 17 19 20 14 10 -14z m-567 -50 c3 -5 1 -10 -4 -10 -6 0 -11 5 -11
10 0 6 2 10 4 10 3 0 8 -4 11 -10z m45 -35 c11 -13 10 -14 -4 -9 -9 3 -16 10
-16 15 0 13 6 11 20 -6z m-2873 -911 c-3 -3 -12 -4 -19 -1 -8 3 -5 6 6 6 11 1
17 -2 13 -5z m4812 -371 c23 -6 23 -7 5 -14 -10 -4 -32 -8 -49 -8 -29 0 -29 0
-11 14 23 17 22 17 55 8z m108 -39 c14 -14 14 -17 -4 -37 -11 -12 -33 -37 -49
-56 -116 -138 -221 -236 -384 -362 -14 -10 -38 -30 -55 -42 -16 -13 -64 -43
-105 -68 -41 -24 -77 -46 -80 -49 -6 -6 -180 -84 -224 -100 -100 -37 -475 -43
-654 -11 -62 11 -121 25 -131 31 -11 5 -31 10 -45 10 -15 0 -34 4 -44 9 -9 5
-33 16 -52 25 -19 9 -48 24 -64 33 -17 9 -44 16 -61 17 -42 1 -81 35 -89 76
-3 19 -3 30 0 23 3 -8 19 -10 44 -7 30 4 39 2 42 -11 2 -14 10 -11 43 15 24
19 39 39 37 49 -2 11 7 22 23 29 14 7 28 19 31 27 8 19 24 20 24 1 0 -16 43
-26 111 -26 l49 0 0 40 0 40 40 0 c36 0 40 -2 40 -25 0 -22 4 -25 40 -25 30 0
40 -4 40 -16 0 -8 5 -12 10 -9 22 14 10 35 -21 35 -17 0 -28 4 -24 10 3 6 16
10 27 10 12 0 41 9 65 21 41 20 43 20 73 3 16 -10 30 -24 30 -31 0 -8 12 -13
30 -13 22 0 30 -5 30 -17 0 -15 2 -14 14 3 14 18 15 18 21 2 8 -20 41 -24 47
-6 5 15 90 11 100 -5 4 -7 15 -5 33 7 22 14 46 17 159 14 121 -3 132 -2 128
14 -5 20 44 67 70 68 13 0 20 11 24 40 7 41 24 56 24 20 0 -11 5 -20 10 -20 6
0 10 9 10 20 0 11 5 20 10 20 6 0 10 7 10 16 0 14 9 16 50 12 28 -3 53 -1 56
3 3 5 0 9 -6 9 -6 0 -8 5 -5 10 3 6 14 10 24 10 10 0 31 11 47 25 32 28 39 31
107 40 31 4 47 11 47 21 0 8 6 14 13 14 7 0 21 14 30 30 16 27 23 30 68 30 27
0 49 5 49 10 0 17 99 12 117 -6z m-6273 -106 c24 -188 56 -358 67 -358 5 0 9
-41 9 -90 0 -50 4 -98 9 -108 39 -75 42 -95 27 -162 -11 -45 -23 -71 -40 -85
-14 -11 -32 -36 -40 -57 -23 -54 -66 -90 -66 -55 0 7 -10 24 -22 37 -13 14
-23 34 -24 45 -12 230 -5 647 10 665 19 22 27 50 15 50 -6 0 -7 9 -3 23 5 12
9 33 10 47 3 30 26 90 35 90 4 0 9 -19 13 -42z m336 -282 c0 -3 -4 -8 -10 -11
-5 -3 -10 -1 -10 4 0 6 5 11 10 11 6 0 10 -2 10 -4z m3832 -106 c7 -16 18 -30
24 -30 6 0 17 -7 24 -15 10 -12 10 -15 -3 -15 -9 0 -22 7 -31 15 -8 8 -23 15
-33 16 -10 0 -13 3 -5 6 17 7 15 23 -3 23 -16 0 -20 12 -8 23 12 13 21 7 35
-23z"/>
<path d="M5991 8524 c0 -11 3 -14 6 -6 3 7 2 16 -1 19 -3 4 -6 -2 -5 -13z"/>
<path d="M5170 9076 c0 -2 7 -6 15 -10 8 -3 15 -1 15 4 0 6 -7 10 -15 10 -8 0
-15 -2 -15 -4z"/>
<path d="M2580 6905 c0 -8 5 -15 10 -15 6 0 10 7 10 15 0 8 -4 15 -10 15 -5 0
-10 -7 -10 -15z"/>
<path d="M2575 6820 c3 -5 8 -10 11 -10 2 0 4 5 4 10 0 6 -5 10 -11 10 -5 0
-7 -4 -4 -10z"/>
<path d="M3858 7193 c6 -2 18 -2 25 0 6 3 1 5 -13 5 -14 0 -19 -2 -12 -5z"/>
<path d="M3853 7173 c9 -2 23 -2 30 0 6 3 -1 5 -18 5 -16 0 -22 -2 -12 -5z"/>
<path d="M3848 7143 c7 -3 16 -2 19 1 4 3 -2 6 -13 5 -11 0 -14 -3 -6 -6z"/>
<path d="M3787 7113 c-11 -10 -8 -20 7 -26 8 -3 16 2 19 14 5 18 -12 27 -26
12z"/>
<path d="M5550 6156 c0 -2 6 -9 14 -15 10 -9 15 -8 20 4 4 10 -1 15 -14 15
-11 0 -20 -2 -20 -4z"/>
<path d="M5493 6117 c-27 -12 -29 -23 -5 -30 9 -2 24 -8 33 -11 13 -6 16 -2
12 19 -7 32 -12 35 -40 22z"/>
<path d="M5670 5984 c0 -6 9 -19 19 -28 18 -17 20 -16 27 6 l7 23 10 -25 c5
-14 11 -20 14 -13 8 21 -20 48 -49 48 -16 1 -28 -4 -28 -11z"/>
<path d="M5344 5979 c-3 -6 -1 -16 5 -22 8 -8 11 -5 11 11 0 24 -5 28 -16 11z"/>
<path d="M5512 5840 c0 -14 2 -19 5 -12 2 6 2 18 0 25 -3 6 -5 1 -5 -13z"/>
<path d="M5540 5830 c0 -5 5 -10 10 -10 6 0 10 5 10 10 0 6 -4 10 -10 10 -5 0
-10 -4 -10 -10z"/>
<path d="M3550 5640 c0 -5 5 -10 10 -10 6 0 10 5 10 10 0 6 -4 10 -10 10 -5 0
-10 -4 -10 -10z"/>
<path d="M3550 5530 c0 -5 5 -10 11 -10 5 0 7 5 4 10 -3 6 -8 10 -11 10 -2 0
-4 -4 -4 -10z"/>
<path d="M6595 4470 c-3 -5 -3 -15 1 -21 6 -11 23 6 24 24 0 10 -18 9 -25 -3z"/>
<path d="M4185 5040 c3 -5 8 -10 11 -10 2 0 4 5 4 10 0 6 -5 10 -11 10 -5 0
-7 -4 -4 -10z"/>
<path d="M4733 4418 c2 -7 14 -13 27 -13 13 0 25 6 28 13 2 8 -7 12 -28 12
-21 0 -30 -4 -27 -12z"/>
<path d="M4966 4322 c-3 -6 -1 -14 5 -17 14 -9 20 -2 10 14 -6 8 -11 9 -15 3z"/>
<path d="M4900 4268 c0 -9 5 -20 10 -23 13 -8 13 5 0 25 -8 13 -10 13 -10 -2z"/>
<path d="M5042 4225 c0 -11 3 -31 8 -45 6 -22 8 -23 15 -6 5 10 4 21 -2 25 -6
3 -13 15 -16 26 l-5 20 0 -20z"/>
<path d="M4970 4180 c0 -5 5 -10 10 -10 6 0 10 5 10 10 0 6 -4 10 -10 10 -5 0
-10 -4 -10 -10z"/>
<path d="M4910 4176 c0 -2 7 -7 16 -10 8 -3 12 -2 9 4 -6 10 -25 14 -25 6z"/>
<path d="M4748 4163 c7 -3 16 -2 19 1 4 3 -2 6 -13 5 -11 0 -14 -3 -6 -6z"/>
<path d="M4658 4153 c7 -3 16 -2 19 1 4 3 -2 6 -13 5 -11 0 -14 -3 -6 -6z"/>
<path d="M4855 4140 c-3 -5 1 -10 10 -10 9 0 13 5 10 10 -3 6 -8 10 -10 10 -2
0 -7 -4 -10 -10z"/>
<path d="M4670 4130 c0 -5 7 -10 16 -10 8 0 12 5 9 10 -3 6 -10 10 -16 10 -5
0 -9 -4 -9 -10z"/>
<path d="M3520 4123 c1 -34 2 -36 12 -18 17 28 17 55 1 55 -8 0 -13 -13 -13
-37z"/>
<path d="M6640 2679 c0 -18 2 -19 15 -9 8 7 15 16 15 21 0 5 -7 9 -15 9 -9 0
-15 -9 -15 -21z"/>
<path d="M6580 2631 c0 -17 18 -21 24 -6 3 9 0 15 -9 15 -8 0 -15 -4 -15 -9z"/>
<path d="M5260 2310 c0 -5 5 -10 10 -10 6 0 10 5 10 10 0 6 -4 10 -10 10 -5 0
-10 -4 -10 -10z"/>
<path d="M5950 2305 c7 -8 16 -15 21 -15 5 0 9 7 9 15 0 9 -9 15 -21 15 -18 0
-19 -2 -9 -15z"/>
<path d="M4673 2153 c9 -2 23 -2 30 0 6 3 -1 5 -18 5 -16 0 -22 -2 -12 -5z"/>
<path d="M6263 9585 c0 -8 4 -15 9 -15 4 0 8 7 8 15 0 8 -4 15 -8 15 -5 0 -9
-7 -9 -15z"/>
<path d="M881 9374 c0 -11 3 -14 6 -6 3 7 2 16 -1 19 -3 4 -6 -2 -5 -13z"/>
<path d="M6460 9187 c0 -44 -12 -62 -23 -34 -3 6 -6 2 -6 -10 -1 -12 3 -23 8
-25 5 -1 11 -27 14 -57 7 -64 18 -79 34 -45 6 13 7 24 2 24 -5 0 -9 14 -9 30
0 17 5 30 12 30 9 0 9 3 0 12 -15 15 -16 48 -2 48 17 0 11 36 -10 55 -20 18
-20 17 -20 -28z"/>
<path d="M6500 9135 c0 -8 7 -15 15 -15 8 0 15 7 15 15 0 8 -7 15 -15 15 -8 0
-15 -7 -15 -15z"/>
<path d="M1053 8520 c0 -25 2 -35 4 -22 2 12 2 32 0 45 -2 12 -4 2 -4 -23z"/>
<path d="M7823 6520 c0 -25 2 -35 4 -22 2 12 2 32 0 45 -2 12 -4 2 -4 -23z"/>
<path d="M8747 4612 c-4 -19 -4 -44 -1 -57 3 -12 9 -71 13 -131 l8 -109 1 115
c0 63 -3 138 -7 165 -6 49 -7 50 -14 17z"/>
<path d="M8385 4310 c3 -5 8 -10 11 -10 2 0 4 5 4 10 0 6 -5 10 -11 10 -5 0
-7 -4 -4 -10z"/>
<path d="M8763 4200 c0 -25 2 -35 4 -22 2 12 2 32 0 45 -2 12 -4 2 -4 -23z"/>
<path d="M8750 4040 c0 -22 5 -40 10 -40 6 0 10 18 10 40 0 22 -4 40 -10 40
-5 0 -10 -18 -10 -40z"/>
<path d="M8760 3900 c0 -11 5 -20 10 -20 6 0 10 9 10 20 0 11 -4 20 -10 20 -5
0 -10 -9 -10 -20z"/>
</g>
</svg>
