<?xml version="1.0" standalone="no"?>
<!DOCTYPE svg PUBLIC "-//W3C//DTD SVG 20010904//EN"
 "http://www.w3.org/TR/2001/REC-SVG-20010904/DTD/svg10.dtd">
<svg version="1.0" xmlns="http://www.w3.org/2000/svg"
 width="500.000000pt" height="500.000000pt" viewBox="0 0 500.000000 500.000000"
 preserveAspectRatio="xMidYMid meet">
<metadata>
Created by potrace 1.14, written by Peter Selinger 2001-2017
</metadata>
<g transform="translate(0.000000,500.000000) scale(0.100000,-0.100000)"
fill="#000000" stroke="none">
<path d="M0 2500 l0 -2500 2500 0 2500 0 0 2500 0 2500 -2500 0 -2500 0 0
-2500z m1850 929 c0 -24 -17 -25 -23 -1 -3 9 -5 -8 -5 -38 -1 -42 1 -50 8 -32
12 29 20 28 20 -4 0 -21 -4 -25 -22 -22 -20 3 -23 10 -26 57 -2 35 1 57 9 62
18 11 39 -1 39 -22z m41 -29 c5 0 9 14 9 31 0 17 4 28 10 24 6 -3 10 -33 10
-66 0 -33 -4 -59 -10 -59 -5 0 -10 14 -10 30 0 17 -4 30 -10 30 -5 0 -10 -13
-10 -30 0 -16 -4 -30 -10 -30 -6 0 -10 26 -10 58 0 63 13 94 18 43 2 -17 7
-31 13 -31z m79 50 c0 -5 -4 -10 -10 -10 -15 0 -12 -40 3 -41 10 0 10 -2 0 -6
-7 -2 -13 -15 -13 -28 0 -13 6 -26 13 -28 6 -3 2 -6 -10 -6 -22 -1 -23 3 -23
64 0 58 2 65 20 65 11 0 20 -4 20 -10z m50 0 c0 -5 -4 -10 -10 -10 -15 0 -12
-40 3 -41 10 0 10 -2 0 -6 -20 -7 -16 -51 5 -56 10 -3 6 -5 -10 -6 -27 -1 -28
0 -28 57 0 32 3 62 7 65 10 11 33 8 33 -3z m62 -4 c11 -11 14 -11 24 2 14 20
34 7 33 -21 -1 -17 -2 -18 -6 -4 -6 23 -23 22 -23 -3 0 -11 7 -20 15 -20 10 0
15 -11 15 -35 0 -28 -4 -35 -20 -35 -14 0 -20 6 -19 23 1 16 2 18 6 5 2 -10 9
-18 14 -18 16 0 10 29 -10 49 -19 19 -19 19 -25 -4 -3 -13 -3 -31 0 -39 3 -9
1 -16 -4 -16 -6 0 -14 10 -18 23 l-8 22 -7 -25 c-5 -17 -7 -3 -8 43 -1 52 2
67 14 67 8 0 20 -6 27 -14z m236 -7 c7 -12 16 -18 19 -15 3 3 1 12 -6 20 -9
11 -7 14 14 14 15 0 32 -9 40 -21 21 -30 9 -34 -14 -6 -11 13 -20 19 -21 14 0
-6 5 -16 12 -23 8 -8 4 -11 -17 -9 -25 2 -71 47 -49 47 5 0 15 -9 22 -21z m38
-48 c9 8 14 8 14 1 0 -6 -4 -14 -10 -17 -5 -3 -10 -12 -10 -18 1 -7 12 2 25
18 27 32 35 23 10 -12 -8 -12 -25 -20 -40 -20 -19 0 -23 3 -16 10 6 6 11 16
11 22 -1 5 -10 -1 -21 -14 -27 -33 -34 -20 -7 14 13 17 24 23 26 16 3 -9 7 -9
18 0z m-668 -348 l95 -132 43 60 44 59 91 0 91 0 -15 -23 c-8 -13 -51 -75 -96
-137 l-81 -115 0 -187 0 -188 -75 0 -75 0 0 186 0 185 -150 210 c-82 115 -150
212 -150 215 0 2 41 3 92 2 l92 -3 94 -132z m997 -158 c0 -325 -3 -341 -67
-411 -59 -64 -124 -89 -233 -89 -70 0 -100 5 -136 21 -63 29 -114 77 -141 132
-22 45 -23 57 -23 272 l0 225 75 0 75 0 5 -216 c5 -199 7 -219 25 -239 46 -51
134 -66 201 -34 62 29 64 42 64 347 0 150 3 277 7 281 4 4 39 5 78 4 l70 -3 0
-290z m450 264 c30 -15 62 -42 80 -68 26 -37 30 -53 34 -121 3 -66 -1 -87 -19
-126 -20 -39 -77 -95 -111 -106 -6 -2 24 -77 65 -167 42 -90 76 -168 76 -173
0 -5 -36 -8 -80 -6 l-81 3 -72 157 -72 158 -42 0 -42 0 -3 -157 -3 -158 -75 0
-75 0 -3 232 -2 232 171 3 171 3 24 28 c43 51 22 128 -39 142 -12 3 -89 6
-172 8 l-150 2 -3 59 c-5 94 -17 88 191 84 172 -3 185 -5 232 -29z m405 -298
l0 -330 43 -3 42 -3 0 -65 0 -65 -168 -3 -168 -2 3 67 3 68 43 3 42 3 0 330 0
329 80 0 80 0 0 -329z m-2260 -821 l0 -190 -90 0 -90 0 0 106 0 107 -68 -6
c-193 -18 -292 -121 -292 -302 0 -95 24 -160 78 -214 70 -69 125 -84 313 -82
l149 1 0 -91 0 -92 -167 5 c-144 5 -179 9 -245 31 -216 70 -310 207 -309 447
1 206 71 334 223 409 88 43 179 59 351 60 l147 1 0 -190z m748 -167 l-3 -358
-29 -58 c-57 -117 -192 -185 -344 -174 -43 3 -94 10 -114 16 -87 27 -184 119
-209 199 -7 23 -14 138 -16 300 l-5 262 96 0 96 0 0 -249 c0 -241 1 -249 23
-281 36 -53 80 -72 162 -68 55 2 78 8 104 27 59 42 61 56 61 416 l0 325 90 0
91 0 -3 -357z m432 48 l215 -308 3 308 2 309 90 0 90 0 0 -475 0 -475 -88 0
-88 0 -214 308 -215 307 -3 -192 -2 -193 -95 0 -95 0 0 360 0 360 93 0 92 -1
215 -308z m628 102 l2 -203 -95 0 -95 0 0 205 0 206 93 -3 92 -3 3 -202z m540
-265 l-3 -473 -90 0 -90 0 -3 88 -3 87 -174 0 -174 0 -3 -87 -3 -88 -90 0 -90
0 -3 178 -2 177 270 0 270 0 0 288 c0 159 3 292 7 295 3 4 46 7 95 7 l88 0 -2
-472z m600 4 c100 -257 182 -471 182 -475 0 -4 -42 -6 -92 -5 l-93 3 -87 245
c-48 135 -91 253 -96 263 -6 14 -21 -20 -61 -135 -29 -84 -71 -204 -93 -265
l-40 -113 -95 0 c-55 0 -93 4 -91 9 63 178 366 941 374 941 6 0 93 -210 192
-468z"/>
<path d="M2050 3410 c0 -16 5 -30 10 -30 6 0 10 14 10 30 0 17 -4 30 -10 30
-5 0 -10 -13 -10 -30z"/>
</g>
</svg>
